<?xml version="1.0" encoding="utf-8"?>
<!-- Generator: Adobe Illustrator 20.1.0, SVG Export Plug-In . SVG Version: 6.00 Build 0)  -->
<svg version="1.1" id="Layer_1" xmlns="http://www.w3.org/2000/svg" xmlns:xlink="http://www.w3.org/1999/xlink" x="0px" y="0px"
	 viewBox="0 0 32 32" style="enable-background:new 0 0 32 32;" xml:space="preserve">
<style type="text/css">
	.st0{display:none;}
	.st1{fill:#FFFFFF;}
	.st2{fill:#832884;}
</style>
<g id="Layer_3">
</g>
<g id="Layer_4" class="st0">
</g>
<g id="Layer_5">
</g>
<g id="Layer_6">
</g>
<g id="Layer_2">
</g>
<g id="Layer_7">
</g>
<rect x="6.463" y="6.277" class="st1" width="19.447" height="19.447"/>
<path class="st2" d="M29.855,7.969c-1.431-2.451-3.371-4.391-5.823-5.822C21.581,0.716,18.904,0,16.001,0
	c-2.903,0-5.58,0.716-8.031,2.146c-2.452,1.43-4.393,3.371-5.823,5.822C0.715,10.421,0,13.098,0,16.001
	c0,2.902,0.715,5.579,2.146,8.031c1.431,2.451,3.371,4.392,5.822,5.822C10.421,31.285,13.098,32,16.001,32
	c2.903,0,5.58-0.716,8.031-2.146c2.451-1.43,4.392-3.371,5.823-5.822C31.285,21.579,32,18.902,32,16.001
	C32,13.098,31.285,10.42,29.855,7.969L29.855,7.969z M25.334,17.333c0,0.362-0.132,0.674-0.396,0.938
	c-0.265,0.265-0.577,0.396-0.938,0.396h-5.334V24c0,0.361-0.131,0.673-0.396,0.938c-0.263,0.263-0.576,0.396-0.937,0.396h-2.667
	c-0.361,0-0.674-0.132-0.938-0.396c-0.263-0.265-0.396-0.577-0.396-0.938v-5.334H8c-0.361,0-0.673-0.131-0.936-0.396
	c-0.265-0.264-0.396-0.576-0.396-0.938v-2.666c0-0.362,0.131-0.674,0.396-0.937C7.327,13.465,7.639,13.334,8,13.334h5.334V8
	c0-0.361,0.132-0.673,0.396-0.938c0.263-0.263,0.577-0.396,0.938-0.396h2.667c0.361,0,0.673,0.132,0.938,0.396
	C18.535,7.327,18.668,7.639,18.668,8v5.334H24c0.361,0,0.674,0.131,0.938,0.396c0.263,0.263,0.396,0.575,0.396,0.937V17.333z
	 M25.334,17.333"/>
</svg>
