<?xml version="1.0" encoding="utf-8"?>
<!-- Generator: Adobe Illustrator 19.1.0, SVG Export Plug-In . SVG Version: 6.00 Build 0)  -->
<svg version="1.1" id="Layer_1" xmlns="http://www.w3.org/2000/svg" xmlns:xlink="http://www.w3.org/1999/xlink" x="0px" y="0px"
	 viewBox="0 0 32 32" style="enable-background:new 0 0 32 32;" xml:space="preserve">
<style type="text/css">
	.st0{fill:#676463;}
	.st1{fill:#FFFFFF;}
</style>
<g>
	<circle class="st0" cx="16" cy="16" r="16"/>
	<g>
		<g>
			<path class="st1" d="M21.9,14.2c-0.1-0.4-0.3-0.8-0.5-1.2c0.3-0.5,0.6-1,0.9-1.4l-2-2l-1.4,0.9c-0.4-0.2-0.7-0.4-1.2-0.5
				c-0.1-0.6-0.3-1.1-0.4-1.7c-0.9,0-1.9,0-2.8,0l-0.4,1.7c-0.4,0.1-0.8,0.3-1.2,0.5l-1.4-0.9l-2,2l0.9,1.4
				c-0.2,0.4-0.4,0.7-0.5,1.2c-0.6,0.1-1.1,0.3-1.7,0.4c0,0.9,0,1.9,0,2.8l1.7,0.4c0.1,0.4,0.3,0.8,0.5,1.2c-0.3,0.5-0.6,1-0.9,1.4
				c0.7,0.7,1.3,1.3,2,2c0.5-0.3,1-0.6,1.4-0.9c0.4,0.2,0.7,0.4,1.2,0.5c0.1,0.6,0.3,1.1,0.4,1.7c0.9,0,1.9,0,2.8,0l0.4-1.7
				c0.4-0.1,0.8-0.3,1.2-0.5l1.4,0.9l2-2c-0.3-0.5-0.6-1-0.9-1.5c0.2-0.4,0.4-0.7,0.5-1.2c0.6-0.1,1.1-0.3,1.7-0.4
				c0-0.9,0-1.9,0-2.8L21.9,14.2z M16,18.8c-2.6,0-3.8-3.3-1.8-5c2-1.7,5,0.1,4.6,2.7C18.5,17.8,17.3,18.8,16,18.8z"/>
		</g>
	</g>
</g>
</svg>
