<?xml version="1.0" encoding="utf-8"?>
<!-- Generator: Adobe Illustrator 21.0.2, SVG Export Plug-In . SVG Version: 6.00 Build 0)  -->
<svg width="16" heigh="16" version="1.1" id="Layer_2" xmlns="http://www.w3.org/2000/svg" xmlns:xlink="http://www.w3.org/1999/xlink" x="0px" y="0px"
	 viewBox="0 0 32 32" style="enable-background:new 0 0 32 32;" xml:space="preserve">
<style type="text/css">
	.st0{fill:#0B55A8;}
</style>
<g>
	<path class="st0" d="M29.538,25.758H25.67v-9.495h0.879c-0.527-1.231-1.407-2.462-2.462-3.516c-0.56,0.022-1.08-0.1-1.582-0.352
		c-3.87-3.166-9.429-2.86-13.363,0c-0.352,0.352-0.879,0.527-1.407,0.352c-1.055,1.055-1.758,2.286-2.462,3.516h0.879v9.495H2.462
		C1.055,25.758,0,24.352,0,22.769v-3.516c0-1.758,1.055-2.989,2.462-2.989h0.527c0.703-1.934,1.934-3.868,3.341-5.275
		c0-0.527,0.176-1.231,0.703-1.582c5.095-4.076,12.892-4.322,17.934,0c0.527,0.352,0.703,1.055,0.703,1.582
		c1.407,1.407,2.637,3.165,3.341,5.275h0.527c1.407,0,2.462,1.407,2.462,2.989v3.516C32,24.527,30.945,25.758,29.538,25.758z"/>
</g>
</svg>
