<?xml version="1.0" encoding="utf-8"?>
<!-- Generator: Adobe Illustrator 19.2.0, SVG Export Plug-In . SVG Version: 6.00 Build 0)  -->
<svg width="16" height="16" version="1.1" id="Layer_2" xmlns="http://www.w3.org/2000/svg" xmlns:xlink="http://www.w3.org/1999/xlink" x="0px" y="0px"
	 viewBox="0 0 32 32" style="enable-background:new 0 0 32 32;" xml:space="preserve">
<style type="text/css">
	.st0{fill:#FFFFFF;}
	.st1{fill:#0B55A8;}
</style>
<g>
	<polygon class="st0" points="4,0.9 4,31.2 28.2,31.2 28.2,8.7 20.5,0.9 	"/>
	<path class="st1" d="M20.2,0H5.8v0l0,0C4,0,3.1,1,3.1,2.6v26.6C3.1,31.1,4,32,5.6,32h20.5c1.8,0,2.8-1,2.8-2.6V8.8L20.2,0z
		 M27.1,29.1c0,0.6-0.5,1-1.1,1H5.9c-0.6,0-1-0.5-1-1V2.9c0-0.6,0.4-1,1-1h14.2l0,2.9c0,2.2,1.8,4.1,4.1,4.1h2.9V29.1z"/>
	<path class="st1" d="M23.7,23.4h-2.2V18H22c-0.3-0.7-0.8-1.4-1.4-2c0,0-0.1,0-0.2,0c-0.2,0-0.5-0.1-0.7-0.2
		c-1.1-0.9-2.4-1.3-3.8-1.3c-1.4,0-2.7,0.5-3.8,1.3c-0.2,0.2-0.5,0.3-0.8,0.2c-0.6,0.6-1,1.3-1.4,2h0.5v5.4H8.3
		c-0.8,0-1.4-0.8-1.4-1.7v-2c0-1,0.6-1.7,1.4-1.7h0.3c0.4-1.1,1.1-2.2,1.9-3c0-0.3,0.1-0.7,0.4-0.9c1.5-1.2,3.3-1.8,5.1-1.8
		c1.9,0,3.7,0.6,5.1,1.8c0.3,0.2,0.4,0.6,0.4,0.9c0.8,0.8,1.5,1.8,1.9,3h0.3c0.8,0,1.4,0.8,1.4,1.7v2C25.1,22.7,24.5,23.4,23.7,23.4
		z"/>
</g>
</svg>
