<?xml version="1.0" encoding="utf-8"?>
<!-- Generator: Adobe Illustrator 21.0.2, SVG Export Plug-In . SVG Version: 6.00 Build 0)  -->
<svg width="16" height="16" version="1.1" id="Layer_1" xmlns="http://www.w3.org/2000/svg" xmlns:xlink="http://www.w3.org/1999/xlink" x="0px" y="0px"
	 viewBox="0 0 32 32" style="enable-background:new 0 0 32 32;" xml:space="preserve">
<style type="text/css">
	.st0{display:none;}
	.st1{fill:#832884;}
	.st2{fill:#FFFFFF;}
</style>
<g id="Layer_3">
</g>
<g id="Layer_4" class="st0">
</g>
<g id="Layer_5">
</g>
<g id="Layer_6">
</g>
<g id="Layer_2">
</g>
<g id="Layer_7">
</g>
<g id="Layer_8">
</g>
<g>
	<path class="st1" d="M16,32C9.352,32,3.246,27.733,0.966,21.485C-1.34,15.168,0.657,7.899,5.848,3.633
		c5.16-4.241,12.65-4.8,18.379-1.359c5.745,3.451,8.781,10.31,7.462,16.884C30.206,26.539,23.525,32,16,32z"/>
	<path class="st2" d="M20.473,20.412l-1.924-1.924c0.759-1.097,0.906-2.544,0.384-3.772c-0.841-1.974-3.184-2.948-5.172-2.103
		c-0.488,0.207-0.909,0.488-1.262,0.841c-0.353,0.353-0.634,0.774-0.841,1.262c-0.62,1.458-0.28,3.209,0.841,4.33
		c0.353,0.354,0.774,0.634,1.262,0.842c1.229,0.522,2.676,0.375,3.772-0.385l1.924,1.918c0.273,0.288,0.734,0.276,1.009,0
		C20.744,21.145,20.753,20.69,20.473,20.412L20.473,20.412z M17.072,18.025c-0.974,0.974-2.576,0.974-3.55,0
		c-0.973-0.973-0.975-2.576,0-3.55c0.974-0.974,2.576-0.974,3.55,0C18.046,15.449,18.046,17.051,17.072,18.025L17.072,18.025z
		 M17.072,18.025"/>
	<path class="st2" d="M19.112,5.973H8.363c-1.344,0-2.015,0.726-2.015,1.887v16.08c0,1.307,0.746,2.032,1.941,2.032h15.302
		c1.344,0,2.09-0.726,2.09-1.887V12.361L19.112,5.973z M24.263,23.868c0,0.436-0.373,0.726-0.746,0.726H8.512
		c-0.448,0-0.746-0.363-0.746-0.726V8.078c0-0.436,0.373-0.726,0.746-0.726h10.6v2.105c0,1.597,1.344,2.976,3.06,2.976h2.09V23.868z
		"/>
</g>
</svg>
