<svg width="16" height="16" id="Layer_2" data-name="Layer 2" xmlns="http://www.w3.org/2000/svg" viewBox="0 0 32 32"><defs><style>.cls-1{fill:#fff;}.cls-2{fill:#0b55a8;}.cls-3{fill:#0071bc;}</style></defs><title>Artboard 6</title><polygon class="cls-1" points="4 0.93 4 31.19 28.23 31.19 28.23 8.7 20.48 0.93 4 0.93"/><path class="cls-2" d="M20.16,0H5.83C4,0,3.08,1,3.08,2.58V29.23C3.08,31.06,4,32,5.62,32h20.5c1.83,0,2.81-1,2.81-2.58V8.81Zm6.92,29.1a1.08,1.08,0,0,1-1.08,1H5.94a1,1,0,0,1-1-1V2.9a1,1,0,0,1,1-1H20.15V4.73a4.08,4.08,0,0,0,4.06,4.08h2.86Z"/><path class="cls-3" d="M11,19.73l1.4.65A5.28,5.28,0,0,1,11.32,23a2.43,2.43,0,0,1-1.9.84,2.7,2.7,0,0,1-2.34-1.44,7.25,7.25,0,0,1-.91-3.92,7.65,7.65,0,0,1,.92-4.09,2.77,2.77,0,0,1,2.42-1.46A2.51,2.51,0,0,1,11.64,14,4.93,4.93,0,0,1,12.37,16l-1.43.5a2.57,2.57,0,0,0-.53-1.29,1.23,1.23,0,0,0-1-.47,1.47,1.47,0,0,0-1.29.84,5.63,5.63,0,0,0-.49,2.73,6.08,6.08,0,0,0,.49,2.85A1.44,1.44,0,0,0,9.41,22a1.22,1.22,0,0,0,1-.54A3.79,3.79,0,0,0,11,19.73Z"/><path class="cls-3" d="M19.56,23.61H18l-.62-2.4H14.52l-.59,2.4H12.4l2.78-10.54H16.7Zm-2.65-4.17-1-3.91-1,3.91Z"/><path class="cls-3" d="M19.82,13.07h2.63a3.56,3.56,0,0,1,1.36.2,2.46,2.46,0,0,1,1.08,1,5.39,5.39,0,0,1,.68,1.71,11.29,11.29,0,0,1,.23,2.49,10,10,0,0,1-.22,2.24,5.37,5.37,0,0,1-.76,1.86,2.52,2.52,0,0,1-1,.84,3,3,0,0,1-1.28.22H19.82Zm1.44,1.78v7h1.08a2.71,2.71,0,0,0,.87-.1,1.26,1.26,0,0,0,.58-.44,2.65,2.65,0,0,0,.38-1,10.08,10.08,0,0,0,.15-1.93,9.22,9.22,0,0,0-.15-1.88,2.8,2.8,0,0,0-.41-1,1.29,1.29,0,0,0-.67-.5,4.44,4.44,0,0,0-1.18-.1Z"/></svg>