<?xml version="1.0" encoding="utf-8"?>
<!-- Generator: Adobe Illustrator 21.0.2, SVG Export Plug-In . SVG Version: 6.00 Build 0)  -->
<svg version="1.1" id="Layer_1" xmlns="http://www.w3.org/2000/svg" xmlns:xlink="http://www.w3.org/1999/xlink" x="0px" y="0px"
	 viewBox="0 0 32 32" style="enable-background:new 0 0 32 32;" xml:space="preserve">
<style type="text/css">
	.st0{fill:#FFFFFF;}
</style>
<g>
	<path class="st0" d="M29.855,7.969c-1.431-2.451-3.371-4.391-5.823-5.822C21.581,0.716,18.904,0,16.001,0
		c-2.903,0-5.58,0.716-8.031,2.146c-2.452,1.43-4.393,3.371-5.823,5.822C0.715,10.421,0,13.098,0,16.001
		c0,2.902,0.715,5.579,2.146,8.031c1.431,2.451,3.371,4.392,5.822,5.822C10.421,31.285,13.098,32,16.001,32
		c2.903,0,5.58-0.716,8.031-2.146c2.451-1.43,4.392-3.371,5.823-5.822C31.285,21.579,32,18.902,32,16.001
		C32,13.098,31.285,10.42,29.855,7.969L29.855,7.969z M23.542,19.772c0.264,0.263,0.396,0.576,0.396,0.938
		c0,0.375-0.132,0.694-0.396,0.958l-1.875,1.875c-0.263,0.263-0.583,0.396-0.958,0.396c-0.361,0-0.674-0.132-0.938-0.396
		l-3.77-3.771l-3.771,3.771c-0.265,0.263-0.577,0.396-0.938,0.396c-0.376,0-0.694-0.132-0.959-0.396l-1.875-1.875
		c-0.263-0.264-0.396-0.583-0.396-0.958c0-0.362,0.132-0.674,0.396-0.938l3.772-3.771l-3.772-3.772
		c-0.263-0.263-0.396-0.576-0.396-0.936c0-0.376,0.132-0.696,0.396-0.959l1.875-1.876c0.265-0.263,0.583-0.396,0.959-0.396
		c0.361,0,0.673,0.132,0.938,0.396l3.771,3.771l3.77-3.771c0.264-0.263,0.577-0.396,0.938-0.396c0.375,0,0.694,0.132,0.958,0.396
		l1.875,1.876c0.264,0.263,0.396,0.583,0.396,0.959c0,0.361-0.132,0.673-0.396,0.936l-3.771,3.772L23.542,19.772z M23.542,19.772"/>
</g>
</svg>
