<?xml version="1.0" encoding="utf-8"?>
<!-- Generator: Adobe Illustrator 21.0.0, SVG Export Plug-In . SVG Version: 6.00 Build 0)  -->
<svg width="16" height="16" version="1.1" id="Layer_1" xmlns="http://www.w3.org/2000/svg" xmlns:xlink="http://www.w3.org/1999/xlink" x="0px" y="0px"
	 viewBox="0 0 32 32" style="enable-background:new 0 0 32 32;" xml:space="preserve">
<style type="text/css">
	.st0{fill:#002158;}
</style>
<g>
	<path class="st0" d="M29.9,8c-1.4-2.5-3.4-4.4-5.9-5.9C21.5,0.7,18.9,0,16,0s-5.5,0.7-8,2.1C5.5,3.6,3.6,5.5,2.1,8
		C0.7,10.5,0,13.1,0,16s0.7,5.5,2.1,8s3.4,4.4,5.9,5.9c2.5,1.4,5.1,2.1,8,2.1s5.5-0.7,8-2.1s4.4-3.4,5.9-5.9c1.4-2.5,2.1-5.1,2.1-8
		S31.3,10.5,29.9,8L29.9,8z M23.6,19.7c0.2,0.2,0.4,0.5,0.4,1s-0.1,0.7-0.4,1l-1.9,1.9c-0.2,0.2-0.5,0.4-1,0.4c-0.3,0-0.6-0.1-1-0.4
		L16,19.7l-3.7,3.7c-0.2,0.2-0.5,0.4-1,0.4s-0.7-0.1-1-0.4l-1.9-1.9C8.2,21.3,8,21,8,20.6c0-0.3,0.1-0.6,0.4-1l3.7-3.7l-3.7-3.7
		c-0.2-0.2-0.4-0.5-0.4-1s0.1-0.7,0.4-1l1.9-1.9c0.2-0.2,0.5-0.4,1-0.4c0.3,0,0.6,0.1,1,0.4l3.7,3.7l3.7-3.7c0.2-0.2,0.5-0.4,1-0.4
		s0.7,0.1,1,0.4l1.9,1.9c0.2,0.2,0.4,0.5,0.4,1c0,0.3-0.1,0.6-0.4,1L19.7,16L23.6,19.7z"/>
</g>
</svg>
