<svg width="30" height="30" id="Layer_1" data-name="Layer 1" xmlns="http://www.w3.org/2000/svg" viewBox="0 0 32 32"><defs><style>.cls-1{fill:#002158;}.cls-2{fill:#fff;}</style></defs><title>Artboard 1</title><path class="cls-1" d="M29.87,8A16.28,16.28,0,0,0,24,2.13a16.07,16.07,0,0,0-16,0A17.15,17.15,0,0,0,2.13,8a16.07,16.07,0,0,0,0,16A16.28,16.28,0,0,0,8,29.87a16.07,16.07,0,0,0,16,0A16.28,16.28,0,0,0,29.87,24a16.07,16.07,0,0,0,0-16Z"/><path class="cls-2" d="M23.86,20l-4-4,4-4a1,1,0,0,0,0-1.41L21.43,8.14a1,1,0,0,0-1.41,0l-4,4-4-4a1,1,0,0,0-1.41,0L8.14,10.57a1,1,0,0,0,0,1.41l4,4-4,4a1,1,0,0,0,0,1.41l2.43,2.43a1,1,0,0,0,1.41,0l4-4,4,4a1,1,0,0,0,1.41,0l2.43-2.43A1,1,0,0,0,23.86,20Z"/></svg>