<?xml version="1.0" encoding="utf-8"?>
<!-- Generator: Adobe Illustrator 20.1.0, SVG Export Plug-In . SVG Version: 6.00 Build 0)  -->
<svg width="16" heigh="16" version="1.1" id="Layer_1" xmlns="http://www.w3.org/2000/svg" xmlns:xlink="http://www.w3.org/1999/xlink" x="0px" y="0px"
	 viewBox="0 0 32 32" style="enable-background:new 0 0 32 32;" xml:space="preserve">
<style type="text/css">
	.st0{fill:#0B55A8;}
</style>
<g>
	<path class="st0" d="M27.3,3.9c-6.22-4.976-16.276-4.98-22.5,0l0,0c-4.057,3.272-6.045,8.611-3.882,13.546
		C2.898,21.96,7.525,24.726,12.2,25.7c-0.559,1.118-1.3,2.137-2.128,3.072C9.47,29.451,8.28,30.267,8.9,31.3
		c0.274,0.549,0.855,0.6,1.4,0.6c5.3-1.5,7.8-4.1,9.1-6c4.778-0.916,9.528-3.703,11.606-8.267C33.259,12.684,31.343,7.269,27.3,3.9
		C24.3,1.5,30.3,6.4,27.3,3.9z M18.4,23.4c-0.5,0.1-0.9,0.4-1.1,0.8c-0.6,1-1.6,2.3-3.5,3.4c0.3-0.6,0.7-1.2,0.9-1.9
		c0.2-0.5,0.1-1-0.1-1.4c-0.2-0.5-0.7-0.8-1.2-0.9c-3.994-0.624-8.132-2.726-10.045-6.448C1.305,12.962,2.894,8.555,6.2,5.8
		c5.344-4.317,14.059-4.314,19.4,0c2.5,2,3.8,4.6,3.8,7.3C29.5,18.2,24.9,22.5,18.4,23.4C17.9,23.5,24.9,22.5,18.4,23.4z"/>
</g>
</svg>
