<?xml version="1.0" encoding="utf-8"?>
<!-- Generator: Adobe Illustrator 26.0.3, SVG Export Plug-In . SVG Version: 6.00 Build 0)  -->
<svg width="16" height="16" version="1.1" id="Layer_1" xmlns="http://www.w3.org/2000/svg" xmlns:xlink="http://www.w3.org/1999/xlink" x="0px" y="0px"
	 viewBox="0 0 32 32" style="enable-background:new 0 0 32 32;" xml:space="preserve">
<style type="text/css">
	.st0{fill:#FFFFFF;}
</style>
<g>
	<path class="st0" d="M27.3,3.9c-3-2.4-7-3.7-11.2-3.7S7.8,1.5,4.8,3.9l0,0C1.7,6.4,0,9.7,0,13.1c0,6,5,11.1,12.2,12.6
		c-0.9,1.8-2.2,3.2-3.1,4.1c-0.4,0.4-0.5,1-0.2,1.5c0.2,0.4,0.6,0.6,1.1,0.6c0.1,0,0.2,0,0.3,0c5.3-1.5,7.8-4.1,9.1-6
		C26.7,24.5,32,19.3,32,13.1C32,9.7,30.3,6.4,27.3,3.9z M18.4,23.4c-0.5,0.1-0.9,0.4-1.1,0.8c-0.6,1-1.6,2.3-3.5,3.4
		c0.3-0.6,0.7-1.2,0.9-1.9c0.2-0.5,0.1-1-0.1-1.4c-0.2-0.5-0.7-0.8-1.2-0.9c-6.4-1-11-5.3-11-10.3c0-2.7,1.4-5.3,3.8-7.3
		c2.6-2.1,6.1-3.2,9.7-3.2c3.7,0,7.1,1.1,9.7,3.2c2.5,2,3.8,4.6,3.8,7.3C29.5,18.2,24.9,22.5,18.4,23.4z"/>
</g>
</svg>
