<?xml version="1.0" encoding="utf-8"?>
<!-- Generator: Adobe Illustrator 21.0.2, SVG Export Plug-In . SVG Version: 6.00 Build 0)  -->
<svg width="16" height="16" version="1.1" id="Layer_1" xmlns="http://www.w3.org/2000/svg" xmlns:xlink="http://www.w3.org/1999/xlink" x="0px" y="0px"
	 viewBox="0 0 32 32" style="enable-background:new 0 0 32 32;" xml:space="preserve">
<style type="text/css">
	.st0{fill:#BFE2EF;}
	.st1{fill:#0B55A8;}
</style>
<g>
	<path class="st0" d="M28.8,32H3.2C1.433,32,0,30.567,0,28.8V3.2C0,1.433,1.433,0,3.2,0h25.6C30.567,0,32,1.433,32,3.2v25.6
		C32,30.567,30.567,32,28.8,32z"/>
	<g>
		<path class="st1" d="M16.042,9.548H8.93c-1.011,0-1.568,0.537-1.568,1.512v12.971c0,0.982,0.565,1.568,1.511,1.568h9.965
			c1.011,0,1.568-0.537,1.568-1.512V13.971L16.042,9.548z M17.949,14.243h1.104v9.733c0,0.151-0.119,0.27-0.27,0.27H8.985
			c-0.151,0-0.269-0.119-0.269-0.27V11.172c0-0.151,0.118-0.269,0.269-0.269h6.728v1.16C15.713,13.285,16.695,14.243,17.949,14.243z
			"/>
		<path class="st1" d="M20.272,6.4h-7.056c-1.032,0-1.623,0.551-1.623,1.512v0.622h1.353v-0.51c0-0.151,0.119-0.269,0.27-0.269
			h6.672v1.159c0,1.223,0.982,2.181,2.236,2.181h1.104v9.677c0,0.151-0.119,0.27-0.27,0.27h-1.53v1.409h1.642
			c1.011,0,1.568-0.537,1.568-1.511V10.824L20.272,6.4z"/>
	</g>
</g>
</svg>
