<?xml version="1.0" encoding="utf-8"?>
<!-- Generator: Adobe Illustrator 21.0.2, SVG Export Plug-In . SVG Version: 6.00 Build 0)  -->
<svg width="16" height="16" version="1.1" id="Layer_1" xmlns="http://www.w3.org/2000/svg" xmlns:xlink="http://www.w3.org/1999/xlink" x="0px" y="0px"
	 viewBox="0 0 32 32" style="enable-background:new 0 0 32 32;" xml:space="preserve">
<style type="text/css">
	.st0{display:none;}
	.st1{fill-rule:evenodd;clip-rule:evenodd;fill:#832884;}
	.st2{fill:#FFFFFF;}
</style>
<g id="Layer_3">
</g>
<g id="Layer_4" class="st0">
</g>
<g id="Layer_5">
</g>
<g id="Layer_6">
</g>
<g id="Layer_2">
</g>
<g id="Layer_7">
</g>
<g id="Layer_8">
</g>
<g>
	<g>
		<g>
			<path class="st1" d="M17.192,10.832H0V30h32V8.335H18.797L17.192,10.832z"/>
			<polygon class="st1" points="13.576,4 12.184,2 1.497,2 0,3.987 0,8 15.641,8 17.236,5.5 32,5.5 32,4 			"/>
		</g>
	</g>
	<g>
		<path class="st2" d="M20.571,18.894h-3.047v-3.048c0-0.206-0.076-0.385-0.226-0.536c-0.151-0.151-0.33-0.226-0.536-0.226h-1.524
			c-0.206,0-0.385,0.076-0.536,0.226c-0.151,0.151-0.226,0.33-0.226,0.536v3.048h-3.048c-0.206,0-0.385,0.075-0.535,0.226
			c-0.151,0.151-0.226,0.329-0.226,0.536v1.523c0,0.207,0.075,0.385,0.226,0.536c0.151,0.151,0.329,0.226,0.535,0.226h3.048v3.048
			c0,0.206,0.076,0.385,0.226,0.536c0.151,0.151,0.33,0.226,0.536,0.226h1.524c0.206,0,0.385-0.076,0.535-0.226
			c0.151-0.151,0.226-0.33,0.226-0.536v-3.048h3.048c0.206,0,0.384-0.075,0.536-0.226c0.151-0.151,0.226-0.329,0.226-0.536v-1.523
			c0-0.207-0.076-0.385-0.226-0.536C20.957,18.968,20.778,18.894,20.571,18.894z"/>
		<path class="st2" d="M21.333,21.179c0,0.207-0.076,0.385-0.226,0.536c-0.151,0.151-0.33,0.226-0.536,0.226h-3.048v3.048
			c0,0.206-0.075,0.385-0.226,0.536c-0.151,0.151-0.329,0.226-0.535,0.226h-1.524c-0.206,0-0.385-0.076-0.536-0.226
			c-0.151-0.151-0.226-0.33-0.226-0.536v-3.048h-3.048c-0.206,0-0.385-0.075-0.535-0.226c-0.151-0.151-0.226-0.329-0.226-0.536
			v-1.523c0-0.207,0.075-0.385,0.226-0.536c0.151-0.151,0.329-0.226,0.535-0.226h3.048v-3.048c0-0.206,0.076-0.385,0.226-0.536
			c0.151-0.151,0.33-0.226,0.536-0.226h1.524c0.206,0,0.385,0.076,0.536,0.226c0.151,0.151,0.226,0.33,0.226,0.536v3.048h3.047
			c0.206,0,0.385,0.075,0.536,0.226c0.151,0.151,0.226,0.329,0.226,0.536V21.179z"/>
	</g>
</g>
</svg>
