<svg id="Layer_1" data-name="Layer 1" xmlns="http://www.w3.org/2000/svg" viewBox="0 0 32 32"><defs><style>.cls-1,.cls-3{fill:#832884;}.cls-1{fill-rule:evenodd;}.cls-2{fill:#fff;}</style></defs><title>Artboard 1</title><path class="cls-1" d="M16.77,9.5H0V30H32V7H18.38Z"/><polygon class="cls-1" points="13.58 4 12.18 2 1.5 2 0 3.99 0 8 15.95 8 17.55 5.5 32 5.5 32 4 13.58 4"/><path class="cls-2" d="M15.21,25.6A1.27,1.27,0,0,1,14,24.34V21.67H11.29A1.27,1.27,0,0,1,10,20.41V18.84a1.27,1.27,0,0,1,1.26-1.26H14V14.91a1.27,1.27,0,0,1,1.26-1.26h1.57A1.27,1.27,0,0,1,18,14.91v2.67h2.67A1.27,1.27,0,0,1,22,18.84v1.57a1.27,1.27,0,0,1-1.26,1.26H18v2.67a1.27,1.27,0,0,1-1.26,1.26Z"/><path class="cls-3" d="M16.79,14.13a.8.8,0,0,1,.79.79v3.14h3.14a.8.8,0,0,1,.79.79v1.57a.8.8,0,0,1-.79.79H17.57v3.14a.8.8,0,0,1-.79.79H15.21a.8.8,0,0,1-.79-.79V21.2H11.29a.8.8,0,0,1-.79-.79V18.84a.8.8,0,0,1,.79-.79h3.14V14.91a.8.8,0,0,1,.79-.79h1.57m0-.95H15.21a1.75,1.75,0,0,0-1.73,1.73v2.19H11.29a1.75,1.75,0,0,0-1.73,1.73v1.57a1.75,1.75,0,0,0,1.73,1.73h2.19v2.19a1.75,1.75,0,0,0,1.73,1.73h1.57a1.75,1.75,0,0,0,1.73-1.73V22.15h2.19a1.75,1.75,0,0,0,1.73-1.73V18.84a1.75,1.75,0,0,0-1.73-1.73H18.52V14.91a1.75,1.75,0,0,0-1.73-1.73Z"/></svg>