<?xml version="1.0" encoding="utf-8"?>
<!-- Generator: Adobe Illustrator 21.0.2, SVG Export Plug-In . SVG Version: 6.00 Build 0)  -->
<svg width="16" height="16" version="1.1" id="Layer_2" xmlns="http://www.w3.org/2000/svg" xmlns:xlink="http://www.w3.org/1999/xlink" x="0px" y="0px"
	 viewBox="0 0 32 32" style="enable-background:new 0 0 32 32;" xml:space="preserve">
<style type="text/css">
	.st0{fill:#FFFFFF;}
	.st1{fill:#0B55A8;}
</style>
<g>
	<polygon class="st0" points="4.003,0.928 4.003,31.188 28.235,31.188 28.235,8.696 20.476,0.928 	"/>
	<path class="st1" d="M20.155,0H5.812v0L5.83,0C3.999,0,3.075,0.966,3.075,2.58v26.647c0,1.831,0.93,2.773,2.543,2.773h20.502
		c1.831,0,2.809-0.966,2.809-2.58V8.812L20.155,0z M27.075,29.101c0,0.574-0.506,1.043-1.08,1.043H5.938
		c-0.574,0-1.007-0.47-1.007-1.043V2.899c0-0.574,0.433-1.043,1.007-1.043h14.21l0.005,2.877c0,2.241,1.817,4.079,4.058,4.079h2.864
		V29.101z"/>
	<g>
		<path class="st1" d="M23.599,17.507H8.436c-1.018,0-1.017-1.971,0-1.971h15.163C24.617,15.536,24.617,17.507,23.599,17.507z"/>
	</g>
	<g>
		<path class="st1" d="M23.599,12.985H8.436c-1.018,0-1.017-1.971,0-1.971h15.163C24.617,11.014,24.617,12.985,23.599,12.985z"/>
	</g>
	<g>
		<g>
			<path class="st1" d="M23.599,26.551H8.436c-1.018,0-1.017-1.971,0-1.971h15.163C24.617,24.58,24.617,26.551,23.599,26.551z"/>
		</g>
		<g>
			<path class="st1" d="M23.599,22.029H8.436c-1.018,0-1.017-1.971,0-1.971h15.163C24.617,20.058,24.617,22.029,23.599,22.029z"/>
		</g>
	</g>
</g>
</svg>
