<?xml version="1.0" encoding="utf-8"?>
<!-- Generator: Adobe Illustrator 21.0.2, SVG Export Plug-In . SVG Version: 6.00 Build 0)  -->
<svg width="16" height="16" version="1.1" id="Layer_1" xmlns="http://www.w3.org/2000/svg" xmlns:xlink="http://www.w3.org/1999/xlink" x="0px" y="0px"
	 viewBox="0 0 32 32" style="enable-background:new 0 0 32 32;" xml:space="preserve">
<style type="text/css">
	.st0{display:none;}
	.st1{fill:#002158;}
	.st2{fill:#FFFFFF;}
</style>
<g id="Layer_3">
</g>
<g id="Layer_4" class="st0">
</g>
<g id="Layer_5">
</g>
<g id="Layer_6">
</g>
<g id="Layer_2">
</g>
<g id="Layer_7">
</g>
<g>
	<path class="st1" d="M29.855,7.969c-1.431-2.451-3.371-4.391-5.823-5.822c-4.89-2.854-11.172-2.854-16.062,0
		c-2.452,1.43-4.393,3.371-5.823,5.822c-2.854,4.891-2.854,11.172,0,16.063c1.431,2.451,3.371,4.392,5.822,5.822
		c4.891,2.853,11.172,2.855,16.063,0c2.451-1.43,4.392-3.371,5.823-5.822C32.707,19.141,32.708,12.86,29.855,7.969L29.855,7.969z
		 M25.334,17.333"/>
	<path class="st2" d="M23.957,8.045c-1.093-1.1-2.739-1.363-3.558-0.549L9.125,18.79c-0.011,0.009-0.006,0.024-0.015,0.034
		c-0.039,0.045-0.077,0.088-0.1,0.145l-1.98,5.381c-0.068,0.182-0.022,0.388,0.114,0.525c0.129,0.129,0.352,0.181,0.524,0.116
		l5.371-1.98c0.057-0.021,0.101-0.063,0.145-0.101c0.01-0.009,0.027-0.006,0.036-0.015l11.27-11.294
		c0.333-0.328,0.506-0.778,0.508-1.297C25.002,9.541,24.612,8.698,23.957,8.045z M9.713,23.175c-0.106-0.174-0.228-0.34-0.377-0.489
		c-0.152-0.152-0.317-0.274-0.491-0.379l0.831-2.26l2.291,2.296L9.713,23.175z M14.068,16.996l-0.974-0.975l4.329-4.316l0.968,0.968
		L14.068,16.996z M21.308,13.55l-2.858-2.853l1.147-1.146l2.853,2.857L21.308,13.55z"/>
</g>
</svg>
