<?xml version="1.0" encoding="utf-8"?>
<!-- Generator: Adobe Illustrator 21.0.2, SVG Export Plug-In . SVG Version: 6.00 Build 0)  -->
<svg width="16" heigh="16" version="1.1" id="Layer_1" xmlns="http://www.w3.org/2000/svg" xmlns:xlink="http://www.w3.org/1999/xlink" x="0px" y="0px"
	 viewBox="0 0 32 32" style="enable-background:new 0 0 32 32;" xml:space="preserve">
<style type="text/css">
	.st0{display:none;}
	.st1{fill:#0B55A8;}
</style>
<g id="Layer_3">
</g>
<g id="Layer_4" class="st0">
</g>
<g id="Layer_5">
</g>
<g id="Layer_6">
</g>
<g id="Layer_2">
</g>
<g id="Layer_7">
</g>
<g id="Layer_8">
</g>
<g>
	<path class="st1" d="M22.135,15.59l0.017-0.016c0.432-0.43,0.587-1.235-0.002-1.618L16,7.975l-6.153,5.984
		c-0.491,0.492-0.491,1.206,0,1.698c0.491,0.491,1.206,0.491,1.698,0l3.174-3.173v18.318c0,1.557,2.397,1.557,2.397,0V12.237
		l3.271,3.269C20.938,15.965,21.624,16,22.135,15.59z"/>
	<path class="st1" d="M29.815,0H2.185C1.001,0,0,1.001,0,2.186v17.762c0,1.185,1.001,2.185,2.185,2.185h9.093v-2.397H3.419
		c-0.495,0-1.021-0.358-1.021-1.021V3.419c0-0.495,0.358-1.021,1.021-1.021h25.245c0.495,0,1.021,0.358,1.021,1.021v15.295
		c0,0.495-0.358,1.021-1.021,1.021h-7.942v2.397h9.093c1.185,0,2.185-1.001,2.185-2.185V2.186C32,1.001,30.999,0,29.815,0z"/>
</g>
</svg>
