<?xml version="1.0" encoding="utf-8"?>
<!-- Generator: Adobe Illustrator 19.2.1, SVG Export Plug-In . SVG Version: 6.00 Build 0)  -->
<svg width="16" height="16" version="1.1" id="Layer_2" xmlns="http://www.w3.org/2000/svg" xmlns:xlink="http://www.w3.org/1999/xlink" x="0px" y="0px"
	 viewBox="0 0 32 32" style="enable-background:new 0 0 32 32;" xml:space="preserve">
<style type="text/css">
	.st0{fill:#FFFFFF;}
	.st1{fill:#0B55A8;}
	.st2{fill:#1E7145;}
</style>
<g>
	<g>
		<path class="st0" d="M20.2,4.7l0-2.9H6c-0.6,0-1,0.5-1,1v26.2c0,0.6,0.5,1,1,1H26c0.6,0,1-0.5,1-1V8.8h-2.8
			C22,8.8,20.2,7,20.2,4.7z"/>
		<path class="st1" d="M20.2,0H5.8C4,0,3.1,1,3.1,2.6v26.6c0,1.8,1,2.8,2.6,2.8h20.5c1.8,0,2.8-1,2.8-2.6V8.8L20.2,0z M27.1,29.1
			c0,0.6-0.5,1-1,1H6c-0.6,0-1-0.5-1-1V2.9c0-0.6,0.5-1,1-1h14.2l0,2.9c0,2.2,1.8,4.1,4.1,4.1h2.8V29.1z"/>
	</g>
	<g>
		<path class="st2" d="M8.7,26.9l5.4-7.8l-4.9-7.1h3.7l3.1,4.8l3.1-4.8h3.7l-4.9,7.3l5.4,7.7h-3.8L16,21.7l-3.5,5.2H8.7z"/>
	</g>
</g>
</svg>
