<?xml version="1.0" encoding="utf-8"?>
<!-- Generator: Adobe Illustrator 21.0.2, SVG Export Plug-In . SVG Version: 6.00 Build 0)  -->
<svg width="16" height="16" version="1.1" id="Layer_1" xmlns="http://www.w3.org/2000/svg" xmlns:xlink="http://www.w3.org/1999/xlink" x="0px" y="0px"
	 viewBox="0 0 32 32" style="enable-background:new 0 0 32 32;" xml:space="preserve">
<style type="text/css">
	.st0{fill:#BFE2EF;}
	.st1{fill:#0B55A8;}
</style>
<g>
	<path class="st0" d="M28.8,32H3.2C1.433,32,0,30.567,0,28.8V3.2C0,1.433,1.433,0,3.2,0h25.6C30.567,0,32,1.433,32,3.2v25.6
		C32,30.567,30.567,32,28.8,32z"/>
	<g>
		<path class="st1" d="M15.951,25.599l-0.554-0.464c-3.374-2.827-7.701-5.124-9.453-9.409c-1.445-3.532-0.405-8.248,3.745-9.184
			c2.338-0.527,4.81,0.449,6.262,2.331c2.387-3.089,7.376-3.389,9.65-0.013c2.62,3.891-0.04,8.647-2.99,11.42
			c-1.902,1.788-4.11,3.184-6.106,4.855L15.951,25.599z M11.015,8.117c-1.541,0-2.955,0.858-3.595,2.269
			c-0.728,1.605-0.431,3.57,0.307,5.115c1.663,3.482,5.314,5.554,8.224,7.861c2.969-2.347,6.767-4.493,8.343-8.118
			c0.686-1.577,0.906-3.587,0.046-5.143c-0.66-1.195-1.915-1.923-3.269-1.981c-1.898-0.081-3.533,1.089-4.343,2.762l-0.776,1.603
			l-0.776-1.603C14.219,8.907,12.532,8.117,11.015,8.117z"/>
	</g>
</g>
</svg>
