<?xml version="1.0" encoding="utf-8"?>
<!-- Generator: Adobe Illustrator 21.0.2, SVG Export Plug-In . SVG Version: 6.00 Build 0)  -->
<svg width="16" height="16" version="1.1" id="Layer_1" xmlns="http://www.w3.org/2000/svg" xmlns:xlink="http://www.w3.org/1999/xlink" x="0px" y="0px"
	 viewBox="0 0 32 32" style="enable-background:new 0 0 32 32;" xml:space="preserve">
<style type="text/css">
	.st0{fill:#D4D2D2;}
</style>
<g>
	<path class="st0" d="M15.999,30.404l-0.831-0.696C10.105,25.466,3.613,22.019,0.984,15.59c-2.168-5.3-0.607-12.376,5.62-13.781
		c3.508-0.791,7.218,0.673,9.396,3.497c3.582-4.635,11.068-5.085,14.479-0.019c3.931,5.838-0.06,12.974-4.486,17.135
		c-2.854,2.683-6.167,4.777-9.162,7.285L15.999,30.404z M8.593,4.173c-2.312,0-4.434,1.287-5.394,3.405
		c-1.092,2.408-0.647,5.357,0.461,7.675c2.495,5.224,7.973,8.333,12.34,11.795c4.455-3.522,10.153-6.741,12.518-12.181
		c1.029-2.366,1.36-5.382,0.069-7.717c-0.991-1.793-2.873-2.885-4.905-2.972c-2.848-0.122-5.301,1.634-6.517,4.145l-1.165,2.405
		l-1.165-2.405C13.4,5.358,10.869,4.173,8.593,4.173z"/>
</g>
</svg>
