<svg xmlns="http://www.w3.org/2000/svg" xmlns:xlink="http://www.w3.org/1999/xlink" width="32" height="32" viewBox="0 0 32 32">
  <defs>
    <clipPath id="clip-favourite_default_rgb_32px">
      <rect width="32" height="32"/>
    </clipPath>
  </defs>
  <g id="favourite_default_rgb_32px" clip-path="url(#clip-favourite_default_rgb_32px)">
    <g id="favourite_rgb_32px" transform="translate(-0.061 0.011)">
      <path id="Path_762" data-name="Path 762" d="M15.988,30.384l-.83-.7C10.1,25.449,3.611,22,.983,15.58-1.183,10.284.377,3.213,6.6,1.809A9.414,9.414,0,0,1,15.989,5.3C19.568.672,27.049.222,30.458,5.284c3.928,5.834-.06,12.965-4.483,17.123-2.852,2.681-6.163,4.774-9.156,7.28ZM8.587,4.171a5.865,5.865,0,0,0-5.39,3.4,9.357,9.357,0,0,0,.461,7.67c2.493,5.22,7.967,8.327,12.331,11.787,4.452-3.52,10.146-6.736,12.509-12.172,1.028-2.364,1.359-5.378.069-7.712a5.857,5.857,0,0,0-4.9-2.97,7,7,0,0,0-6.512,4.142l-1.164,2.4-1.164-2.4A6.88,6.88,0,0,0,8.587,4.171Z" fill="#0b55a8"/>
    </g>
  </g>
</svg>
