<?xml version="1.0" encoding="utf-8"?>
<!-- Generator: Adobe Illustrator 20.1.0, SVG Export Plug-In . SVG Version: 6.00 Build 0)  -->
<svg width="16" height="16" version="1.1" id="Layer_1" xmlns="http://www.w3.org/2000/svg" xmlns:xlink="http://www.w3.org/1999/xlink" x="0px" y="0px"
	 viewBox="0 0 32 32" style="enable-background:new 0 0 32 32;" xml:space="preserve">
<style type="text/css">
	.st0{display:none;}
	.st1{display:inline;fill:none;}
	.st2{display:inline;}
	.st3{fill:#409BF9;}
	.st4{fill:#FFFFFF;}
</style>
<g id="Layer_3_1_">
</g>
<g id="Layer_2" class="st0">
	<path class="st1" d="M20.3,15.6c-0.2-0.2-0.4-0.3-0.6-0.4c0.1-0.1,0.2-0.3,0.3-0.4c-0.1,0.1-0.2,0.3-0.3,0.4
		C19.9,15.4,20.1,15.5,20.3,15.6z"/>
	<path class="st1" d="M18.5,15.9l-0.9-0.4l0.8-0.6c1-0.7,1.6-1.9,1.6-3.1c0-2.1-1.7-3.8-3.8-3.8s-3.8,1.7-3.8,3.8
		c0,1.2,0.6,2.4,1.6,3.1l0.8,0.6l-0.9,0.4c-2.3,0.9-3.9,3.3-3.9,5.8c0,1.3,2.7,2.3,6.2,2.3s6.2-1,6.2-2.3
		C22.3,19.2,20.8,16.8,18.5,15.9z"/>
	<path class="st1" d="M12.4,15.3c-0.2,0.1-0.4,0.3-0.6,0.4c0.2-0.2,0.5-0.3,0.7-0.5c-0.1-0.1-0.2-0.3-0.3-0.4
		C12.3,14.9,12.4,15.1,12.4,15.3C12.4,15.2,12.4,15.2,12.4,15.3z"/>
	<path class="st2" d="M20.2,15.6c-0.2-0.1-0.4-0.3-0.6-0.4c0.1-0.1,0.5-0.6,0.6-0.7c0.5-0.8,0.8-1.7,0.8-2.7c0-2.7-2.2-5-4.9-5
		c-2.1,0-3.8,1.3-4.6,3c-0.2,0.6-0.4,1.2-0.4,1.9c0,1,0.3,1.9,0.8,2.7c0.1,0.1,0.5,0.6,0.6,0.8c-0.2,0.1-0.5,0.3-0.7,0.5
		c-1.9,1.4-3.1,3.6-3.1,6c0,0.1,0,0.2,0,0.3c0,0,0,0,0,0c0.1,0.8,0.7,1.7,2.5,2.4c1.3,0.5,3,0.7,4.9,0.7c3.6,0,7.1-1,7.4-3.2
		c0-0.1,0-0.1,0-0.2C23.4,19.3,22.2,17,20.2,15.6z"/>
</g>
<circle class="st3" cx="16" cy="16" r="16"/>
<path class="st4" d="M22.4,22.6c0,1.6-1.3,2.8-2.8,2.8s-2.8-1.3-2.8-2.8c0-0.4,0.1-0.7,0.2-1l-4.6-3.4c-0.5,0.4-1.1,0.6-1.7,0.6
	c-1.6,0-2.8-1.3-2.8-2.8s1.3-2.8,2.8-2.8c0.7,0,1.3,0.3,1.8,0.7l4.5-3.3c-0.1-0.3-0.2-0.7-0.2-1.1c0-1.6,1.3-2.8,2.8-2.8
	s2.8,1.3,2.8,2.8s-1.3,2.8-2.8,2.8c-0.6,0-1.2-0.2-1.7-0.6c0,0,0,0,0,0L13.3,15c0.1,0.3,0.2,0.6,0.2,1c0,0.4-0.1,0.7-0.2,1.1
	l4.5,3.4c0.5-0.4,1.1-0.6,1.8-0.6C21.1,19.7,22.4,21,22.4,22.6z"/>
</svg>
