<?xml version="1.0" encoding="utf-8"?>
<!-- Generator: Adobe Illustrator 19.2.1, SVG Export Plug-In . SVG Version: 6.00 Build 0)  -->
<svg width="16" height="16" version="1.1" id="Layer_1" xmlns="http://www.w3.org/2000/svg" xmlns:xlink="http://www.w3.org/1999/xlink" x="0px" y="0px"
	 viewBox="0 0 32 32" style="enable-background:new 0 0 32 32;" xml:space="preserve">
<style type="text/css">
	.st0{display:none;}
	.st1{fill:#053A78;}
	.st2{fill:#FFFFFF;}
</style>
<g id="Layer_3">
</g>
<g id="Layer_4" class="st0">
</g>
<g id="Layer_5">
</g>
<g id="Layer_6">
</g>
<g id="Layer_2">
</g>
<g id="Layer_7">
</g>
<g>
	<circle class="st1" cx="16" cy="16" r="16"/>
	<path id="XMLID_1754_" class="st2" d="M23.1,23.8l-3-4.1c2-2.4,2.4-5.4,0.8-7c-1.2-1.2-3.3-1.3-5.3-0.3L15,11.6
		c0.3-1.2,0.2-2.3-0.6-3c-1.3-1.3-3.8-0.8-5.6,1c-1.8,1.8-2.2,4.3-1,5.6c0.7,0.7,1.9,0.9,3,0.6l0.8,0.6c-1,2-0.9,4.1,0.3,5.3
		c1.6,1.6,4.6,1.2,7-0.8L23.1,23.8z"/>
</g>
</svg>
