<?xml version="1.0" encoding="utf-8"?>
<!-- Generator: Adobe Illustrator 21.0.2, SVG Export Plug-In . SVG Version: 6.00 Build 0)  -->
<svg width="16" height="16" version="1.1" id="Layer_1" xmlns="http://www.w3.org/2000/svg" xmlns:xlink="http://www.w3.org/1999/xlink" x="0px" y="0px"
	 viewBox="0 0 32 32" style="enable-background:new 0 0 32 32;" xml:space="preserve">
<style type="text/css">
	.st0{fill:#F0F0F1;}
	.st1{fill:#D4D2D2;}
</style>
<g>
	<path class="st0" d="M28.8,32H3.2C1.433,32,0,30.567,0,28.8V3.2C0,1.433,1.433,0,3.2,0h25.6C30.567,0,32,1.433,32,3.2v25.6
		C32,30.567,30.567,32,28.8,32z"/>
	<path class="st1" d="M18.731,21.491H13.36c-0.455,0-0.84,0.215-0.84,0.588c0,0.39,0.377,0.609,0.84,0.609h5.371
		c0.464,0,0.841-0.219,0.841-0.609C19.571,21.706,19.187,21.491,18.731,21.491z M16.035,25.13c0.097,0,0.195-0.029,0.293-0.04
		c0.988-0.107,2.392-1.205,2.392-1.205h-5.351C13.37,23.885,14.975,25.13,16.035,25.13z M22.808,9.972
		c-0.943-2.417-3.646-4.041-6.728-4.041c-0.267,0-0.514,0.019-0.775,0.038l-0.062,0.005c-1.89,0.169-3.491,0.873-4.761,2.093
		c-1.936,1.889-2.183,4.809-0.601,7.1c0.355,0.533,0.775,1.035,1.18,1.52c0.113,0.136,0.227,0.271,0.338,0.406
		c0.665,0.857,1.003,1.753,1.003,2.662c0,0.472,0.494,0.855,1.1,0.855c0.126,0,4.969,0.022,4.969,0.022
		c0.701,0,1.171-0.386,1.171-0.962c0-0.062,0.023-0.315,0.022-0.373c0.086-0.816,0.459-1.612,1.144-2.434
		c0.101-0.121,0.203-0.242,0.305-0.363c0.302-0.356,0.614-0.723,0.88-1.119C23.264,13.638,23.537,11.819,22.808,9.972z
		 M20.508,14.517l-0.004,0.005c-0.182,0.29-0.424,0.571-0.68,0.868l-0.451,0.577c-0.874,1.075-1.343,1.934-1.474,3.131h-3.732
		c-0.156-1.197-0.596-2.017-1.304-2.874c-0.167-0.236-0.362-0.47-0.547-0.677c-0.324-0.392-0.658-0.806-0.919-1.207
		c-0.934-1.373-1.208-3.582,0.391-5.175c0.999-0.955,2.189-1.482,3.64-1.606l0.054-0.007c0.188-0.019,0.365-0.037,0.576-0.037
		c2.273,0,4.353,1.213,5.057,2.95C21.677,11.891,21.479,13.217,20.508,14.517z"/>
</g>
</svg>
