<?xml version="1.0" encoding="utf-8"?>
<!-- Generator: Adobe Illustrator 24.0.1, SVG Export Plug-In . SVG Version: 6.00 Build 0)  -->
<svg version="1.1" id="Layer_1" xmlns="http://www.w3.org/2000/svg" xmlns:xlink="http://www.w3.org/1999/xlink" x="0px" y="0px"
	 viewBox="0 0 32 32" style="enable-background:new 0 0 32 32;" xml:space="preserve">
<style type="text/css">
	.st0{fill:#676463;}
</style>
<path class="st0" d="M20.51,25.934h-8.952c-0.759,0-1.4,0.359-1.4,0.98c0,0.65,0.628,1.015,1.4,1.015h8.952
	c0.773,0,1.401-0.365,1.401-1.015C21.911,26.293,21.27,25.934,20.51,25.934z M16.017,32c0.162,0,0.325-0.049,0.489-0.067
	c1.646-0.179,3.987-2.009,3.987-2.009h-8.918C11.574,29.924,14.251,32,16.017,32z M27.306,6.735C25.735,2.707,21.229,0,16.093,0
	c-0.445,0-0.856,0.031-1.291,0.063l-0.104,0.008c-3.15,0.281-5.819,1.455-7.936,3.489C3.536,6.708,3.124,11.575,5.76,15.393
	c0.592,0.889,1.291,1.725,1.967,2.533c0.189,0.226,0.378,0.452,0.564,0.677c1.108,1.429,1.671,2.922,1.671,4.436
	c0,0.786,0.823,1.425,1.834,1.425c0.21,0,8.282,0.036,8.282,0.036c1.168,0,1.952-0.643,1.952-1.603c0-0.103,0.038-0.525,0.037-0.621
	c0.143-1.36,0.765-2.687,1.906-4.057c0.168-0.202,0.338-0.404,0.509-0.605c0.504-0.593,1.023-1.205,1.467-1.865
	C28.065,12.846,28.521,9.814,27.306,6.735z M23.472,14.311l-0.007,0.008c-0.304,0.483-0.706,0.951-1.133,1.446l-0.751,0.961
	c-1.456,1.791-2.239,3.224-2.457,5.219h-6.221c-0.26-1.995-0.993-3.362-2.174-4.79c-0.279-0.393-0.603-0.783-0.912-1.128
	c-0.54-0.653-1.097-1.344-1.531-2.012c-1.556-2.289-2.013-5.97,0.652-8.625c1.665-1.592,3.649-2.47,6.067-2.676l0.09-0.011
	c0.313-0.031,0.608-0.062,0.96-0.062c3.789,0,7.256,2.022,8.428,4.916C25.421,9.934,25.09,12.143,23.472,14.311z"/>
</svg>
