<svg xmlns="http://www.w3.org/2000/svg" xmlns:xlink="http://www.w3.org/1999/xlink" width="32" height="32" viewBox="0 0 32 32">
  <defs>
    <clipPath id="clip-path">
      <rect id="Rectangle_160" data-name="Rectangle 160" width="23.938" height="32" fill="none"/>
    </clipPath>
    <clipPath id="clip-inspiration_default_rgb_32px">
      <rect width="32" height="32"/>
    </clipPath>
  </defs>
  <g id="inspiration_default_rgb_32px" clip-path="url(#clip-inspiration_default_rgb_32px)">
    <g id="Group_180" data-name="Group 180" transform="translate(4.03)">
      <g id="Group_179" data-name="Group 179" clip-path="url(#clip-path)">
        <path id="Path_764" data-name="Path 764" d="M16.478,25.934H7.527c-.759,0-1.4.359-1.4.981,0,.649.626,1.015,1.4,1.015h8.951c.773,0,1.4-.366,1.4-1.015,0-.622-.64-.981-1.4-.981M11.985,32c.162,0,.327-.05.489-.066,1.648-.181,3.989-2.009,3.989-2.009H7.543S10.22,32,11.985,32M23.274,6.736C21.7,2.706,17.2,0,12.062,0c-.446,0-.857.032-1.291.062l-.105.009A12.794,12.794,0,0,0,2.73,3.559a9.078,9.078,0,0,0-1,11.833A30.119,30.119,0,0,0,3.7,17.927c.187.224.377.45.562.677a7.2,7.2,0,0,1,1.673,4.434,1.67,1.67,0,0,0,1.835,1.426l8.279.037c1.168,0,1.952-.645,1.952-1.6,0-.1.039-.523.037-.619a7.589,7.589,0,0,1,1.906-4.057c.169-.2.338-.4.51-.606a21.517,21.517,0,0,0,1.467-1.865,8.959,8.959,0,0,0,1.355-9.013m-3.833,7.575-.007.007A12.309,12.309,0,0,1,18.3,15.765l-.75.962a9.386,9.386,0,0,0-2.457,5.218H8.871A8.809,8.809,0,0,0,6.7,17.154a13.626,13.626,0,0,0-.914-1.127,22.86,22.86,0,0,1-1.531-2.014A6.733,6.733,0,0,1,4.906,5.39a9.628,9.628,0,0,1,6.069-2.677l.089-.011a9.594,9.594,0,0,1,.96-.062c3.79,0,7.257,2.023,8.427,4.917a6.55,6.55,0,0,1-1.01,6.754" transform="translate(-0.001)" fill="#0b55a8"/>
      </g>
    </g>
  </g>
</svg>
