<?xml version="1.0" encoding="utf-8"?>
<!-- Generator: Adobe Illustrator 21.0.2, SVG Export Plug-In . SVG Version: 6.00 Build 0)  -->
<svg width="16" heigh="16" version="1.1" id="Layer_1" xmlns="http://www.w3.org/2000/svg" xmlns:xlink="http://www.w3.org/1999/xlink" x="0px" y="0px"
	 viewBox="0 0 32 32" style="enable-background:new 0 0 32 32;" xml:space="preserve">
<style type="text/css">
	.st0{display:none;}
	.st1{fill:#FFFFFF;}
	.st2{fill:#D4D2D2;}
</style>
<g id="Layer_3">
</g>
<g id="Layer_4" class="st0">
</g>
<g id="Layer_5">
</g>
<g id="Layer_6">
</g>
<g id="Layer_2">
</g>
<g id="Layer_7">
</g>
<g>
	<path class="st1" d="M3.958,31.157c-1.765,0-3.2-1.436-3.2-3.2v-24c0-1.765,1.436-3.2,3.2-3.2h24c1.765,0,3.2,1.436,3.2,3.2v24
		c0,1.765-1.436,3.2-3.2,3.2H3.958z"/>
	<path class="st2" d="M27.957,1.557c1.323,0,2.4,1.077,2.4,2.4v24c0,1.323-1.077,2.4-2.4,2.4h-24c-1.323,0-2.4-1.077-2.4-2.4v-24
		c0-1.323,1.077-2.4,2.4-2.4H27.957 M27.957-0.043h-24c-2.2,0-4,1.8-4,4v24c0,2.2,1.8,4,4,4h24c2.2,0,4-1.8,4-4v-24
		C31.957,1.757,30.157-0.043,27.957-0.043L27.957-0.043z"/>
</g>
<g>
	<path class="st2" d="M13.994,8.371v10.2l-3.78-3.78c-1.849-1.849-4.732,1.028-2.88,2.88l7.26,7.26c0.387,0.387,0.873,0.6,1.44,0.6
		l0,0l0,0c0.572,0,1.048-0.208,1.44-0.6l7.2-7.2c1.861-1.861-1.029-4.731-2.88-2.88l-3.72,3.72v-10.2l0,0
		C18.074,5.745,13.994,5.741,13.994,8.371z"/>
</g>
</svg>
