<?xml version="1.0" encoding="utf-8"?>
<!-- Generator: Adobe Illustrator 20.1.0, SVG Export Plug-In . SVG Version: 6.00 Build 0)  -->
<svg version="1.1" id="Layer_4" xmlns="http://www.w3.org/2000/svg" xmlns:xlink="http://www.w3.org/1999/xlink" x="0px" y="0px"
	 viewBox="0 0 32 32" style="enable-background:new 0 0 32 32;" xml:space="preserve">
<style type="text/css">
	.st0{fill:#0B55A8;}
	.st1{fill-rule:evenodd;clip-rule:evenodd;fill:#FFFFFF;}
	.st2{fill:#FFFFFF;}
</style>
<g>
	<g>
		<circle class="st0" cx="16" cy="16" r="16"/>
		<g>
			<g>
				<path class="st1" d="M20.774,23.805c0,0.555-0.679,1.009-1.508,1.009h-6.542c-0.829,0-1.508-0.454-1.508-1.009
					s0.679-1.009,1.508-1.009h6.542C20.095,22.797,20.774,23.25,20.774,23.805z"/>
			</g>
			<path class="st2" d="M23.667,7.839H8.344c-0.739,0-1.338,0.599-1.338,1.338v9.774c0,0.739,0.599,1.338,1.338,1.338h4.624
				c0.643,0.016,1.159,0.525,1.163,1.171v0.404h1.876h1.876v-0.435c0.02-0.63,0.528-1.124,1.16-1.14h4.625
				c0.739,0,1.338-0.599,1.338-1.338V9.177C25.005,8.438,24.406,7.839,23.667,7.839z M22.822,18.818H9.189
				c-0.396,0-0.717-0.321-0.717-0.717v-8.078c0-0.396,0.321-0.717,0.717-0.717h13.633c0.396,0,0.717,0.321,0.717,0.717v8.078
				C23.539,18.497,23.218,18.818,22.822,18.818z"/>
		</g>
	</g>
	<g id="Layer_8">
	</g>
</g>
</svg>
