<?xml version="1.0" encoding="utf-8"?>
<!-- Generator: Adobe Illustrator 24.0.1, SVG Export Plug-In . SVG Version: 6.00 Build 0)  -->
<svg version="1.1" id="Layer_1" xmlns="http://www.w3.org/2000/svg" xmlns:xlink="http://www.w3.org/1999/xlink" x="0px" y="0px"
	 viewBox="0 0 32 32" style="enable-background:new 0 0 32 32;" xml:space="preserve">
<style type="text/css">
	.st0{fill:#F0F0F1;}
	.st1{fill:#676463;}
</style>
<path class="st0" d="M28.8,32H3.2C1.433,32,0,30.567,0,28.8V3.2C0,1.433,1.433,0,3.2,0h25.6C30.567,0,32,1.433,32,3.2v25.6
	C32,30.567,30.567,32,28.8,32z"/>
<path id="XMLID_1906_" class="st1" d="M20.402,9.841c0,0.049-0.001,0.08-0.01,0.094C19.642,11.28,18.517,13.3,17.017,16
	s-2.627,4.726-3.384,6.075l-0.525,0.953c-0.073,0.115-0.171,0.172-0.3,0.172c-0.085,0-0.564-0.253-1.435-0.749
	c-0.115-0.072-0.173-0.174-0.173-0.3c0-0.087,0.156-0.398,0.472-0.93c-1.021-0.469-1.963-1.086-2.824-1.856
	c-0.86-0.77-1.607-1.649-2.235-2.625C6.47,16.516,6.4,16.272,6.4,16c0-0.274,0.07-0.515,0.214-0.741
	c1.094-1.677,2.451-3,4.073-3.974c1.621-0.972,3.392-1.457,5.313-1.457c0.635,0,1.28,0.062,1.928,0.183l0.58-1.038
	c0.071-0.114,0.169-0.173,0.3-0.173c0.036,0,0.1,0.024,0.192,0.064c0.093,0.04,0.202,0.095,0.333,0.168
	c0.128,0.066,0.245,0.132,0.354,0.196c0.105,0.069,0.218,0.13,0.338,0.199c0.115,0.07,0.187,0.112,0.209,0.125
	C20.345,9.62,20.402,9.716,20.402,9.841z M12.348,20.02l0.835-1.515c-0.622-0.45-1.106-1.015-1.458-1.702
	c-0.352-0.68-0.525-1.412-0.525-2.175c0-0.866,0.219-1.668,0.652-2.407C10.219,13.053,8.857,14.315,7.773,16
	C8.964,17.846,10.49,19.179,12.348,20.02z M16.364,12.251c0.1-0.104,0.15-0.22,0.15-0.366c0-0.142-0.05-0.263-0.15-0.362
	c-0.099-0.104-0.22-0.15-0.364-0.15c-0.894,0-1.659,0.32-2.299,0.959c-0.64,0.64-0.959,1.406-0.959,2.296
	c0,0.145,0.05,0.264,0.15,0.369c0.101,0.093,0.223,0.149,0.366,0.149c0.141,0,0.263-0.056,0.365-0.149
	c0.099-0.105,0.15-0.224,0.15-0.369c0-0.613,0.216-1.138,0.652-1.575C14.861,12.616,15.386,12.4,16,12.4
	C16.144,12.4,16.265,12.352,16.364,12.251z M25.6,16c0,0.252-0.07,0.497-0.213,0.739c-0.279,0.455-0.669,0.976-1.17,1.557
	c-1.069,1.224-2.312,2.176-3.722,2.857c-1.412,0.68-2.909,1.02-4.495,1.02l0.792-1.418c1.515-0.127,2.916-0.617,4.207-1.465
	c1.287-0.85,2.365-1.949,3.228-3.289c-0.82-1.28-1.829-2.33-3.02-3.149l0.675-1.2c0.677,0.458,1.331,1.001,1.955,1.638
	c0.624,0.637,1.139,1.296,1.549,1.97C25.53,15.502,25.6,15.747,25.6,16z M20.8,14.628c0,0.993-0.282,1.9-0.848,2.715
	c-0.563,0.822-1.31,1.405-2.238,1.762l3-5.377C20.771,14.051,20.8,14.351,20.8,14.628z"/>
</svg>
