<?xml version="1.0" encoding="utf-8"?>
<!-- Generator: Adobe Illustrator 20.1.0, SVG Export Plug-In . SVG Version: 6.00 Build 0)  -->
<svg width="16" heigh="16" version="1.1" id="Layer_4" xmlns="http://www.w3.org/2000/svg" xmlns:xlink="http://www.w3.org/1999/xlink" x="0px" y="0px"
	 viewBox="0 0 32 32" style="enable-background:new 0 0 32 32;" xml:space="preserve">
<style type="text/css">
	.st0{fill:#0B55A8;}
</style>
<path id="XMLID_1906_" class="st0" d="M23.337,5.734c0,0.082-0.002,0.133-0.017,0.156C22.071,8.133,20.196,11.5,17.696,16
	s-4.378,7.876-5.641,10.125l-0.875,1.588C11.058,27.904,10.895,28,10.68,28c-0.142,0-0.939-0.421-2.392-1.248
	c-0.192-0.119-0.288-0.289-0.288-0.5c0-0.145,0.26-0.663,0.787-1.551c-1.702-0.781-3.272-1.811-4.706-3.094
	c-1.433-1.283-2.678-2.749-3.725-4.375C0.118,16.859,0.001,16.453,0.001,16c0-0.456,0.117-0.858,0.356-1.234
	c1.823-2.795,4.085-5,6.788-6.624c2.702-1.62,5.653-2.429,8.856-2.429c1.058,0,2.133,0.104,3.213,0.305l0.967-1.73
	C20.298,4.098,20.461,4,20.68,4c0.061,0,0.167,0.04,0.32,0.107c0.154,0.066,0.337,0.158,0.555,0.279
	c0.214,0.109,0.408,0.221,0.59,0.326c0.176,0.114,0.363,0.217,0.563,0.331C22.9,5.16,23.02,5.23,23.055,5.252
	C23.243,5.367,23.337,5.527,23.337,5.734z M9.914,22.699l1.392-2.525c-1.036-0.75-1.844-1.691-2.43-2.836
	c-0.586-1.134-0.875-2.353-0.875-3.625c0-1.443,0.365-2.779,1.087-4.012C6.366,11.088,4.096,13.191,2.289,16
	C4.274,19.076,6.818,21.298,9.914,22.699z M16.607,9.752c0.167-0.173,0.25-0.367,0.25-0.61c0-0.237-0.083-0.438-0.25-0.603
	c-0.165-0.174-0.366-0.25-0.606-0.25c-1.49,0-2.765,0.533-3.831,1.598c-1.067,1.067-1.599,2.344-1.599,3.826
	c0,0.241,0.083,0.44,0.25,0.614c0.169,0.155,0.372,0.249,0.609,0.249c0.234,0,0.438-0.094,0.608-0.249
	c0.164-0.175,0.25-0.373,0.25-0.614c0-1.021,0.36-1.896,1.087-2.625C14.102,10.359,14.977,10,16.001,10
	C16.241,10,16.442,9.92,16.607,9.752z M32.001,16c0,0.42-0.117,0.828-0.356,1.232c-0.465,0.759-1.115,1.626-1.949,2.595
	c-1.782,2.04-3.853,3.626-6.203,4.762c-2.353,1.133-4.848,1.699-7.492,1.699l1.32-2.363c2.525-0.212,4.859-1.028,7.012-2.442
	c2.145-1.416,3.941-3.248,5.381-5.482c-1.367-2.133-3.049-3.883-5.033-5.248l1.125-2c1.128,0.764,2.219,1.668,3.258,2.73
	c1.04,1.062,1.898,2.159,2.582,3.283C31.883,15.17,32.001,15.579,32.001,16z M24.001,13.713c0,1.654-0.471,3.167-1.413,4.524
	c-0.938,1.37-2.183,2.342-3.73,2.937l5-8.961C23.953,12.752,24.001,13.252,24.001,13.713z"/>
</svg>
