<?xml version="1.0" encoding="utf-8"?>
<!-- Generator: Adobe Illustrator 20.1.0, SVG Export Plug-In . SVG Version: 6.00 Build 0)  -->
<svg version="1.1" id="Layer_1" xmlns="http://www.w3.org/2000/svg" xmlns:xlink="http://www.w3.org/1999/xlink" x="0px" y="0px"
	 viewBox="0 0 32 32" style="enable-background:new 0 0 32 32;" xml:space="preserve">
<style type="text/css">
	.st0{display:none;}
	.st1{fill:#0B55A8;}
	.st2{fill:#FFFFFF;}
</style>
<g id="Layer_4" class="st0">
</g>
<circle class="st1" cx="16" cy="15.999" r="16"/>
<g>
	<path class="st2" d="M25.143,11.487l0,7.63c0,1.262-1.023,2.286-2.286,2.286l-9.319,0l-3.657,3.657
		c-0.176,0.176-0.457,0.035-0.457-0.176l0-3.481l-0.281,0c-1.262,0-2.286-1.023-2.286-2.286l0-7.63c0-1.262,1.023-2.286,2.286-2.286
		l13.714,0C24.12,9.201,25.143,10.224,25.143,11.487z M16,17.253l-4.923,0l0,1.371l4.923,0L16,17.253z M20.923,14.616l-9.846,0
		l0,1.371l9.846,0L20.923,14.616z M20.923,11.979l-9.846,0l0,1.371l9.846,0L20.923,11.979z"/>
</g>
</svg>
