<?xml version="1.0" encoding="utf-8"?>
<!-- Generator: Adobe Illustrator 21.0.2, SVG Export Plug-In . SVG Version: 6.00 Build 0)  -->
<svg width="16" heigh="16" version="1.1" id="Layer_2" xmlns="http://www.w3.org/2000/svg" xmlns:xlink="http://www.w3.org/1999/xlink" x="0px" y="0px"
	 viewBox="0 0 32 32" style="enable-background:new 0 0 32 32;" xml:space="preserve">
<style type="text/css">
	.st0{fill:#FFFFFF;}
	.st1{fill:#0B55A8;}
</style>
<title>downloads</title>
<g>
	<path class="st0" d="M16.904,21.515h4.8c0.284-1.516,0.454-3.051,0.508-4.593h-5.308V21.515z"/>
	<path class="st0" d="M21.308,23.416h-4.405v6.494C18.711,29.308,20.311,26.918,21.308,23.416z"/>
	<path class="st0" d="M21.704,10.504h-4.8v4.499h5.308C22.152,13.492,21.982,11.989,21.704,10.504z"/>
	<path class="st0" d="M16.904,2.108v6.607h4.405C20.311,5.101,18.711,2.711,16.904,2.108z"/>
	<path class="st0" d="M28.988,10.616h-5.384c0.328,1.477,0.499,2.985,0.508,4.499h6.005C30.003,13.562,29.621,12.04,28.988,10.616z"
		/>
	<path class="st0" d="M20.593,2.711c1.288,1.81,2.22,3.847,2.748,6.005h4.706C26.365,5.883,23.719,3.751,20.593,2.711z"/>
	<path class="st0" d="M23.605,21.515h5.384c0.619-1.459,0.989-3.011,1.092-4.593h-5.967C24.108,18.467,23.938,20.007,23.605,21.515z
		"/>
	<path class="st0" d="M1.995,15.115h5.911c0.021-1.544,0.147-3.085,0.376-4.612H2.993C2.412,11.976,2.075,13.534,1.995,15.115z"/>
	<path class="st0" d="M11.501,29.308c-1.277-1.777-2.197-3.784-2.711-5.911H4.104C5.752,26.216,8.388,28.323,11.501,29.308z"/>
	<path class="st0" d="M10.692,8.715h4.405V2.108C13.289,2.711,11.689,5.101,10.692,8.715z"/>
	<path class="st0" d="M8.395,21.515c-0.328-1.509-0.498-3.049-0.508-4.593H1.995c0.092,1.583,0.461,3.138,1.092,4.593H8.395z"/>
	<path class="st0" d="M15.096,29.911v-6.494h-4.405C11.689,26.918,13.402,29.308,15.096,29.911z"/>
	<path class="st0" d="M9.694,15.115h5.308v-4.499h-4.838C9.849,12.095,9.691,13.603,9.694,15.115z"/>
	<path class="st0" d="M9.694,16.904c0.094,1.694,0.301,3.294,0.508,4.593h4.8v-4.593H9.694z"/>
	<path class="st0" d="M3.991,8.715h4.706c0.473-2.169,1.396-4.215,2.711-6.005C8.295,3.759,5.663,5.89,3.991,8.715z"/>
	<path class="st1" d="M16,0C5.562,0-2.231,10.286,0.596,20.34c2.806,9.98,14.736,14.728,23.631,9.386C29.006,26.855,32,21.576,32,16
		l0,0C31.969,7.176,24.824,0.031,16,0z M24.113,15.059c-0.01-1.513-0.18-3.021-0.508-4.499h5.384
		c0.62,1.426,0.989,2.948,1.092,4.499H24.113z M30.024,16.941c-0.087,1.572-0.437,3.118-1.035,4.574h-5.384
		c0.333-1.508,0.503-3.048,0.508-4.593h5.911V16.941z M23.341,8.715c-0.517-2.155-1.436-4.192-2.711-6.005
		c3.105,1.052,5.729,3.183,7.398,6.005H23.341z M16.941,15.021v-4.518h4.8c0.279,1.485,0.449,2.989,0.508,4.499h-5.346
		L16.941,15.021z M22.249,16.904c-0.054,1.542-0.224,3.077-0.508,4.593h-4.838v-4.593h5.308H22.249z M16.941,8.696V2.108
		c1.882,0.602,3.407,2.993,4.405,6.607h-4.442L16.941,8.696z M16.941,23.398h4.405c-0.998,3.501-2.598,5.911-4.405,6.494v-6.475
		V23.398z M15.059,23.398v6.494c-1.694-0.602-3.407-2.993-4.405-6.494H15.059z M10.165,21.515c-0.207-1.299-0.395-2.899-0.508-4.593
		h5.308v4.593H10.165z M14.965,15.115H9.694c-0.003-1.512,0.155-3.02,0.471-4.499h4.8V15.115z M8.659,8.715H3.991
		c1.668-2.822,4.293-4.952,7.398-6.005c-1.307,1.791-2.224,3.837-2.692,6.005H8.659z M8.264,10.598
		c-0.235,1.52-0.367,3.055-0.395,4.593H1.995c0.082-1.575,0.419-3.126,0.998-4.593h5.289H8.264z M7.868,16.998
		c0.01,1.544,0.181,3.084,0.508,4.593H3.087c-0.631-1.455-1-3.01-1.092-4.593h5.911H7.868z M8.772,23.492
		c0.513,2.127,1.434,4.134,2.711,5.911c-3.113-0.986-5.749-3.092-7.398-5.911h4.706H8.772z M15.078,8.791h-4.386
		c0.998-3.595,2.598-6.005,4.405-6.607v6.607H15.078z"/>
	<path class="st0" d="M20.593,29.308c1.288-1.768,2.221-3.769,2.748-5.892h4.706C26.382,26.239,23.724,28.34,20.593,29.308z"/>
</g>
</svg>
