<svg width="16" height="16" id="Layer_2" data-name="Layer 2" xmlns="http://www.w3.org/2000/svg" viewBox="0 0 32 32"><defs><style>.cls-1{fill:#fff;}.cls-2{fill:#0b55a8;}</style></defs><title>downloads</title><polygon class="cls-1" points="4 0.9 4 31.2 28.2 31.2 28.2 8.7 20.5 0.9 4 0.9"/><path class="cls-2" d="M20.2,0H5.8A2.4,2.4,0,0,0,3.1,2.6V29.2c0,1.9.9,2.8,2.5,2.8H26.1a2.48,2.48,0,0,0,2.8-2.6V8.8Zm6.9,29.1a1,1,0,0,1-1.1,1H5.9a1,1,0,0,1-1-1V2.9a0.94,0.94,0,0,1,1-1H20.1V4.8a4.12,4.12,0,0,0,4.1,4.1h2.9V29.1Z"/><path class="cls-1" d="M16.58,21.23h2.55a16.39,16.39,0,0,0,.27-2.44H16.58v2.44Z"/><path class="cls-1" d="M18.92,22.24H16.58v3.45C17.54,25.37,18.39,24.1,18.92,22.24Z"/><path class="cls-1" d="M19.13,15.38H16.58v2.39H19.4A16.45,16.45,0,0,0,19.13,15.38Z"/><path class="cls-1" d="M16.58,10.92v3.51h2.34C18.39,12.51,17.54,11.24,16.58,10.92Z"/><path class="cls-1" d="M23,15.44H20.14a11.36,11.36,0,0,1,.27,2.39h3.19A7.18,7.18,0,0,0,23,15.44Z"/><path class="cls-1" d="M18.54,11.24A9.33,9.33,0,0,1,20,14.43h2.5A7.28,7.28,0,0,0,18.54,11.24Z"/><path class="cls-1" d="M20.14,21.23H23a7.49,7.49,0,0,0,.58-2.44H20.41A11.48,11.48,0,0,1,20.14,21.23Z"/><path class="cls-1" d="M8.66,17.83h3.14A18.18,18.18,0,0,1,12,15.38H9.19A7.75,7.75,0,0,0,8.66,17.83Z"/><path class="cls-1" d="M13.71,25.37a9,9,0,0,1-1.44-3.14H9.78A7,7,0,0,0,13.71,25.37Z"/><path class="cls-1" d="M13.28,14.43h2.34V10.92C14.66,11.24,13.81,12.51,13.28,14.43Z"/><path class="cls-1" d="M12.06,21.23a11.88,11.88,0,0,1-.27-2.44H8.66a7.18,7.18,0,0,0,.58,2.44h2.82Z"/><path class="cls-1" d="M15.62,25.69V22.24H13.28C13.81,24.1,14.72,25.37,15.62,25.69Z"/><path class="cls-1" d="M12.75,17.83h2.82V15.44H13A11.36,11.36,0,0,0,12.75,17.83Z"/><path class="cls-1" d="M12.75,18.78c0.05,0.9.16,1.75,0.27,2.44h2.55V18.78H12.75Z"/><path class="cls-1" d="M9.72,14.43h2.5a8.42,8.42,0,0,1,1.44-3.19A7.28,7.28,0,0,0,9.72,14.43Z"/><path class="cls-2" d="M16.1,9.8a8.5,8.5,0,1,0,8.5,8.5A8.53,8.53,0,0,0,16.1,9.8Zm4.31,8a11.36,11.36,0,0,0-.27-2.39H23a7.18,7.18,0,0,1,.58,2.39H20.41Zm3.14,1A7.49,7.49,0,0,1,23,21.23H20.14a11.48,11.48,0,0,0,.27-2.44h3.14ZM20,14.43a9.33,9.33,0,0,0-1.44-3.19,7.28,7.28,0,0,1,3.93,3.19H20Zm-3.4,3.35V15.38h2.55a16.45,16.45,0,0,1,.27,2.39H16.58Zm2.82,1a16.39,16.39,0,0,1-.27,2.44H16.58V18.78H19.4Zm-2.82-4.36V10.92c1,0.32,1.81,1.59,2.34,3.51H16.58Zm0,7.81h2.34c-0.53,1.86-1.38,3.14-2.34,3.45V22.24Zm-1,0v3.45c-0.9-.32-1.81-1.59-2.34-3.45h2.34Zm-2.6-1c-0.11-.69-0.21-1.54-0.27-2.44h2.82v2.44H13Zm2.55-3.4H12.75A11.36,11.36,0,0,1,13,15.44h2.55v2.39Zm-3.35-3.4H9.72a7.28,7.28,0,0,1,3.93-3.19A8.42,8.42,0,0,0,12.22,14.43Zm-0.21,1a18.18,18.18,0,0,0-.21,2.44H8.66a7.75,7.75,0,0,1,.53-2.44H12Zm-0.21,3.4a11.88,11.88,0,0,0,.27,2.44H9.24a7.18,7.18,0,0,1-.58-2.44h3.14Zm0.48,3.45a9,9,0,0,0,1.44,3.14,7,7,0,0,1-3.93-3.14h2.5Zm3.35-7.81H13.28c0.53-1.91,1.38-3.19,2.34-3.51v3.51Z"/><path class="cls-1" d="M18.54,25.37A9,9,0,0,0,20,22.24h2.5A7,7,0,0,1,18.54,25.37Z"/></svg>