<?xml version="1.0" encoding="utf-8"?>
<!-- Generator: Adobe Illustrator 20.1.0, SVG Export Plug-In . SVG Version: 6.00 Build 0)  -->
<svg width="16" height="16" version="1.1" xmlns="http://www.w3.org/2000/svg" xmlns:xlink="http://www.w3.org/1999/xlink" x="0px" y="0px"
	 viewBox="0 0 32 32" style="enable-background:new 0 0 32 32;" xml:space="preserve">
<style type="text/css">
	.st0{fill:#FFFFFF;}
	.st1{fill:#0B55A8;}
</style>
<g id="Layer_4">
	<g id="Layer_8">
	</g>
</g>
<g id="Layer_3">
	<g>
		<circle class="st0" cx="16" cy="-32" r="8.531"/>
	</g>
	<g>
		<circle class="st1" cx="16" cy="16" r="16"/>
		<g>
			<path class="st1" d="M16,22.443c-1.394,0-2.717-0.438-3.837-1.266l9.015-9.015c0.828,1.12,1.266,2.443,1.266,3.837
				C22.443,19.553,19.553,22.443,16,22.443z"/>
		</g>
		<path class="st0" d="M22.01,9.99C20.351,8.33,18.175,7.5,16,7.5s-4.351,0.83-6.01,2.49c-3.319,3.319-3.319,8.702,0,12.021
			c1.66,1.66,3.835,2.49,6.01,2.49s4.351-0.83,6.01-2.49C25.33,18.691,25.33,13.309,22.01,9.99z M11.492,11.492
			c1.204-1.204,2.805-1.867,4.508-1.867c1.362,0,2.655,0.431,3.736,1.216c-0.082,0.046-8.84,8.804-8.885,8.88
			C9.05,17.231,9.251,13.733,11.492,11.492z M20.508,20.508c-1.204,1.204-2.805,1.867-4.508,1.867c-1.362,0-2.655-0.431-3.736-1.216
			c0.082-0.046,8.84-8.804,8.885-8.88C22.95,14.769,22.749,18.267,20.508,20.508z"/>
	</g>
</g>
</svg>
