<svg xmlns="http://www.w3.org/2000/svg" xmlns:xlink="http://www.w3.org/1999/xlink" width="20" height="22" viewBox="0 0 20 22"><defs><clipPath id="b"><rect width="20" height="22"/></clipPath></defs><g id="a" clip-path="url(#b)"><path d="M102.553,204.312a3.92,3.92,0,0,0,.569-2.065,3.608,3.608,0,0,0-3.557-3.548H98.053a5.29,5.29,0,0,0,.367-1.929c0-3.017-1.562-4.34-3.949-4.34-2.554,0-2.408,3.934-2.974,4.5-.943.943-2.056,2.754-2.85,3.457H84.553a1.326,1.326,0,0,0-1.326,1.326v9.948a1.327,1.327,0,0,0,1.326,1.327h2.653A1.327,1.327,0,0,0,88.49,212c1.845.041,3.111,1.656,7.369,1.656h.921c3.2,0,4.641-1.634,4.681-3.951a4,4,0,0,0,.718-2.777A3.852,3.852,0,0,0,102.553,204.312Zm-2.343-.488a1.992,1.992,0,0,1-.216,2.72,1.84,1.84,0,0,1-.578,2.386c.319,2.022-.73,2.732-2.2,2.732H95.647c-2.97,0-4.892-1.568-7.114-1.568v-7.717h.452c1.176,0,2.818-2.938,3.919-4.04,1.175-1.176.784-3.135,1.567-3.919,1.96,0,1.96,1.367,1.96,2.351,0,1.624-1.176,2.352-1.176,3.919h4.31a1.618,1.618,0,0,1,1.568,1.567C101.137,203.04,100.6,203.824,100.21,203.824Z" transform="translate(-83.227 -192.43)" fill="#676463"/></g></svg>