<?xml version="1.0" encoding="utf-8"?>
<!-- Generator: Adobe Illustrator 24.0.1, SVG Export Plug-In . SVG Version: 6.00 Build 0)  -->
<svg version="1.1" id="Layer_1" xmlns="http://www.w3.org/2000/svg" xmlns:xlink="http://www.w3.org/1999/xlink" x="0px" y="0px"
	 viewBox="0 0 32 32" style="enable-background:new 0 0 32 32;" xml:space="preserve">
<style type="text/css">
	.st0{fill:#F0F0F1;}
	.st1{fill:#676463;}
</style>
<g>
	<path class="st0" d="M28.8,32H3.2C1.433,32,0,30.567,0,28.8V3.2C0,1.433,1.433,0,3.2,0h25.6C30.567,0,32,1.433,32,3.2v25.6
		C32,30.567,30.567,32,28.8,32z"/>
	<path id="XMLID_49_" class="st1" d="M24.311,10.711c0.859,1.472,1.288,3.077,1.288,4.82c0,1.741-0.429,3.346-1.288,4.818
		c-0.857,1.471-2.022,2.634-3.492,3.495c-1.471,0.857-3.078,1.287-4.818,1.287c-1.742,0-3.348-0.43-4.819-1.287
		c-1.471-0.861-2.636-2.024-3.492-3.495c-0.86-1.472-1.289-3.077-1.289-4.818c0-1.742,0.428-3.348,1.288-4.82
		c0.857-1.472,2.022-2.634,3.492-3.495c1.471-0.857,3.078-1.285,4.82-1.285c1.741,0,3.348,0.428,4.818,1.285
		C22.289,8.077,23.454,9.239,24.311,10.711z M23.363,18.635C23.786,17.649,24,16.611,24,15.531c0-1.082-0.214-2.119-0.637-3.107
		c-0.426-0.989-0.994-1.836-1.707-2.55c-0.712-0.712-1.564-1.283-2.549-1.705C18.119,7.74,17.082,7.532,16,7.532
		c-1.084,0-2.119,0.209-3.107,0.637c-0.985,0.423-1.837,0.993-2.549,1.705c-0.712,0.714-1.281,1.561-1.706,2.55
		c-0.424,0.988-0.637,2.024-0.637,3.107c0,1.081,0.214,2.118,0.637,3.104c0.425,0.991,0.994,1.837,1.706,2.551
		c0.713,0.712,1.564,1.282,2.55,1.705c0.988,0.43,2.024,0.638,3.107,0.638c1.082,0,2.119-0.208,3.107-0.638
		c0.986-0.422,1.838-0.992,2.549-1.705C22.37,20.471,22.937,19.626,23.363,18.635z M13.933,11.198
		c0.311,0.313,0.468,0.688,0.468,1.132c0,0.44-0.158,0.818-0.468,1.13c-0.313,0.316-0.691,0.468-1.133,0.468
		s-0.817-0.152-1.131-0.468c-0.313-0.311-0.468-0.689-0.468-1.13c0-0.444,0.155-0.819,0.468-1.132
		c0.314-0.31,0.689-0.467,1.131-0.467C13.241,10.731,13.619,10.888,13.933,11.198z M20.575,17.769
		c-0.309,1.009-0.884,1.819-1.725,2.438c-0.842,0.615-1.792,0.922-2.85,0.922c-1.059,0-2.009-0.307-2.851-0.922
		c-0.841-0.618-1.417-1.429-1.725-2.438c-0.067-0.21-0.05-0.411,0.051-0.608c0.099-0.197,0.257-0.328,0.475-0.394
		c0.209-0.065,0.409-0.047,0.605,0.048c0.196,0.103,0.327,0.262,0.394,0.477c0.209,0.666,0.594,1.208,1.157,1.622
		c0.563,0.411,1.195,0.616,1.894,0.616s1.331-0.205,1.893-0.616c0.563-0.414,0.948-0.956,1.157-1.622
		c0.066-0.215,0.199-0.374,0.4-0.477c0.201-0.095,0.404-0.113,0.613-0.048c0.207,0.066,0.362,0.197,0.461,0.394
		C20.625,17.358,20.642,17.559,20.575,17.769z M20.331,11.198c0.313,0.313,0.468,0.688,0.468,1.132c0,0.44-0.155,0.818-0.468,1.13
		c-0.313,0.316-0.689,0.468-1.13,0.468c-0.442,0-0.82-0.152-1.133-0.468c-0.311-0.311-0.469-0.689-0.469-1.13
		c0-0.444,0.158-0.819,0.469-1.132c0.313-0.31,0.691-0.467,1.133-0.467C19.641,10.731,20.018,10.888,20.331,11.198z"/>
</g>
</svg>
