<svg xmlns="http://www.w3.org/2000/svg" xmlns:xlink="http://www.w3.org/1999/xlink" width="32" height="32" viewBox="0 0 32 32">
  <defs>
    <clipPath id="clip-participation_default_smiles_rgb_32px">
      <rect width="32" height="32"/>
    </clipPath>
  </defs>
  <g id="participation_default_smiles_rgb_32px" clip-path="url(#clip-participation_default_smiles_rgb_32px)">
    <path id="_Compound_Path_" data-name="&lt;Compound Path&gt;" d="M29.85,8A15.65,15.65,0,0,1,32,16a15.64,15.64,0,0,1-2.15,8A16,16,0,0,1,24,29.86,15.68,15.68,0,0,1,16,32a15.68,15.68,0,0,1-8-2.14A16,16,0,0,1,2.15,24,15.62,15.62,0,0,1,0,16,15.63,15.63,0,0,1,2.15,8,16,16,0,0,1,8,2.14,15.67,15.67,0,0,1,16,0a15.68,15.68,0,0,1,8,2.14A16,16,0,0,1,29.85,8ZM28.27,21.17A13.312,13.312,0,0,0,21.18,3.73,13.319,13.319,0,0,0,3.73,10.82a13.312,13.312,0,0,0,7.09,17.44,13.319,13.319,0,0,0,17.45-7.09ZM12.55,8.78a2.666,2.666,0,1,1-3.77,0,2.67,2.67,0,0,1,3.77,0Zm11.07,11a7.72,7.72,0,0,1-2.87,4.06A7.85,7.85,0,0,1,16,25.33a7.85,7.85,0,0,1-4.75-1.54,7.71,7.71,0,0,1-2.87-4.06,1.28,1.28,0,0,1,.09-1,1.25,1.25,0,0,1,.79-.66,1.32,1.32,0,0,1,1,.08,1.3,1.3,0,0,1,.66.8,5.34,5.34,0,0,0,8.24,2.7,5.22,5.22,0,0,0,1.93-2.7,1.28,1.28,0,0,1,.67-.8,1.36,1.36,0,0,1,1-.08,1.26,1.26,0,0,1,.77.66,1.28,1.28,0,0,1,.1,1Zm-.41-11a2.67,2.67,0,1,1-2.9-.57,2.67,2.67,0,0,1,2.9.57Z" fill="#0b55a8"/>
  </g>
</svg>
