<?xml version="1.0" encoding="utf-8"?>
<!-- Generator: Adobe Illustrator 21.0.2, SVG Export Plug-In . SVG Version: 6.00 Build 0)  -->
<svg version="1.1" id="Layer_1" xmlns="http://www.w3.org/2000/svg" xmlns:xlink="http://www.w3.org/1999/xlink" x="0px" y="0px"
	 viewBox="0 0 32 32" style="enable-background:new 0 0 32 32;" xml:space="preserve">
<style type="text/css">
	.st0{fill:#D4D2D2;}
</style>
<path id="XMLID_1917_" class="st0" d="M29.853,7.967C31.285,10.42,32,13.096,32,16c0,2.902-0.715,5.577-2.147,8.03
	c-1.429,2.452-3.37,4.39-5.821,5.825C21.581,31.283,18.902,32,16.001,32c-2.903,0-5.581-0.717-8.032-2.145
	c-2.451-1.435-4.393-3.373-5.821-5.825C0.714,21.577,0,18.902,0,16c0-2.904,0.714-5.58,2.147-8.033
	c1.429-2.453,3.37-4.39,5.821-5.826C10.42,0.713,13.098,0,16.001,0c2.901,0,5.58,0.713,8.031,2.141
	C26.483,3.577,28.425,5.514,29.853,7.967z M28.273,21.174c0.705-1.644,1.062-3.373,1.062-5.174c0-1.804-0.357-3.531-1.062-5.178
	c-0.71-1.649-1.656-3.06-2.845-4.25c-1.186-1.187-2.606-2.138-4.249-2.842c-1.647-0.715-3.375-1.062-5.179-1.062
	c-1.806,0-3.531,0.348-5.179,1.062C9.18,4.435,7.76,5.385,6.572,6.572c-1.187,1.19-2.135,2.601-2.844,4.25
	C3.022,12.469,2.666,14.196,2.666,16c0,1.801,0.356,3.53,1.062,5.174c0.709,1.651,1.656,3.061,2.844,4.251
	c1.188,1.187,2.607,2.137,4.25,2.841c1.647,0.717,3.373,1.063,5.179,1.063c1.804,0,3.531-0.347,5.179-1.063
	c1.643-0.704,3.063-1.653,4.249-2.841C26.617,24.234,27.563,22.825,28.273,21.174z M12.555,8.779c0.518,0.522,0.78,1.147,0.78,1.887
	c0,0.734-0.263,1.364-0.78,1.883c-0.522,0.526-1.152,0.78-1.889,0.78c-0.736,0-1.362-0.254-1.885-0.78
	c-0.521-0.519-0.78-1.148-0.78-1.883c0-0.74,0.259-1.365,0.78-1.887C9.304,8.262,9.93,8,10.666,8
	C11.402,8,12.032,8.262,12.555,8.779z M23.626,19.73c-0.515,1.681-1.474,3.032-2.875,4.063c-1.403,1.025-2.986,1.536-4.75,1.536
	c-1.765,0-3.349-0.511-4.751-1.536c-1.401-1.03-2.361-2.382-2.875-4.063c-0.111-0.35-0.084-0.685,0.085-1.014
	c0.165-0.328,0.429-0.546,0.791-0.656c0.348-0.109,0.682-0.078,1.009,0.08c0.326,0.172,0.545,0.437,0.656,0.795
	c0.349,1.11,0.99,2.014,1.929,2.704c0.938,0.685,1.991,1.026,3.156,1.026c1.165,0,2.219-0.342,3.155-1.026
	c0.938-0.69,1.58-1.594,1.929-2.704c0.11-0.358,0.331-0.623,0.666-0.795c0.335-0.158,0.674-0.189,1.021-0.08
	c0.345,0.11,0.604,0.328,0.769,0.656C23.71,19.046,23.737,19.381,23.626,19.73z M23.22,8.779C23.742,9.301,24,9.926,24,10.666
	c0,0.734-0.258,1.364-0.78,1.883c-0.522,0.526-1.149,0.78-1.884,0.78c-0.737,0-1.367-0.254-1.889-0.78
	c-0.519-0.519-0.781-1.148-0.781-1.883c0-0.74,0.263-1.365,0.781-1.887C19.969,8.262,20.599,8,21.336,8
	C22.07,8,22.697,8.262,23.22,8.779z"/>
</svg>
