<svg width="16" heigh="16" id="Layer_1" data-name="Layer 1" xmlns="http://www.w3.org/2000/svg" viewBox="0 0 32 32"><defs><style>.cls-1{fill:#0b55a8;}</style></defs><title>Artboard 1</title><path id="_Compound_Path_" data-name="&lt;Compound Path&gt;" class="cls-1" d="M29.85,8A15.65,15.65,0,0,1,32,16a15.64,15.64,0,0,1-2.15,8A16,16,0,0,1,24,29.86,15.68,15.68,0,0,1,16,32a15.68,15.68,0,0,1-8-2.14A16,16,0,0,1,2.15,24,15.62,15.62,0,0,1,0,16,15.63,15.63,0,0,1,2.15,8,16,16,0,0,1,8,2.14,15.67,15.67,0,0,1,16,0a15.68,15.68,0,0,1,8,2.14A16,16,0,0,1,29.85,8ZM28.27,21.17a13.14,13.14,0,0,0,0-10.35,13.15,13.15,0,0,0-7.09-7.09,13.15,13.15,0,0,0-10.36,0,13.14,13.14,0,0,0-7.09,7.09,13.14,13.14,0,0,0,0,10.35,13.13,13.13,0,0,0,7.09,7.09,13.14,13.14,0,0,0,10.36,0,13.14,13.14,0,0,0,7.09-7.09ZM12.55,8.78a2.67,2.67,0,0,1,0,3.77,2.67,2.67,0,0,1-3.77,0,2.67,2.67,0,0,1,0-3.77,2.67,2.67,0,0,1,3.77,0Zm10.67,0a2.67,2.67,0,0,1,0,3.77,2.67,2.67,0,0,1-4.55-1.88,2.67,2.67,0,0,1,4.55-1.89Z"/><path id="_Compound_Path_2" data-name="&lt;Compound Path&gt;" class="cls-1" d="M8.37,23.59a7.72,7.72,0,0,1,2.88-4.06A7.85,7.85,0,0,1,16,18a7.85,7.85,0,0,1,4.75,1.54,7.71,7.71,0,0,1,2.88,4.06,1.28,1.28,0,0,1-.09,1,1.25,1.25,0,0,1-.79.66,1.32,1.32,0,0,1-1-.08,1.3,1.3,0,0,1-.66-.8,5.34,5.34,0,0,0-8.24-2.7,5.22,5.22,0,0,0-1.93,2.7,1.28,1.28,0,0,1-.67.8,1.36,1.36,0,0,1-1,.08,1.26,1.26,0,0,1-.77-.66A1.28,1.28,0,0,1,8.37,23.59Z"/></svg>