<?xml version="1.0" encoding="utf-8"?>
<!-- Generator: Adobe Illustrator 19.2.1, SVG Export Plug-In . SVG Version: 6.00 Build 0)  -->
<svg width="16" height="16" version="1.1" id="Layer_2" xmlns="http://www.w3.org/2000/svg" xmlns:xlink="http://www.w3.org/1999/xlink" x="0px" y="0px"
	 viewBox="0 0 32 32" style="enable-background:new 0 0 32 32;" xml:space="preserve">
<style type="text/css">
	.st0{fill:#FFFFFF;}
	.st1{fill:#0B55A8;}
	.st2{fill:#B42C25;}
</style>
<g>
	<g>
		<path class="st0" d="M20.2,4.7l0-2.9H6c-0.6,0-1,0.5-1,1v26.2c0,0.6,0.5,1,1,1H26c0.6,0,1-0.5,1-1V8.8h-2.8
			C22,8.8,20.2,7,20.2,4.7z"/>
		<path class="st1" d="M20.2,0H5.8C4,0,3.1,1,3.1,2.6v26.6c0,1.8,1,2.8,2.6,2.8h20.5c1.8,0,2.8-1,2.8-2.6V8.8L20.2,0z M27.1,29.1
			c0,0.6-0.5,1-1,1H6c-0.6,0-1-0.5-1-1V2.9c0-0.6,0.5-1,1-1h14.2l0,2.9c0,2.2,1.8,4.1,4.1,4.1h2.8V29.1z"/>
	</g>
	<path class="st2" d="M25.5,20.6c0-0.2-0.2-0.4-0.3-0.5c-0.4-0.4-1.2-0.6-2.5-0.6c-0.9,0-1.9,0.1-3,0.2c-0.5-0.3-1-0.6-1.4-0.9
		c-1.1-1-1.9-2.4-2.5-3.9c0-0.1,0.1-0.3,0.1-0.4c0-0.1,0.6-3.4,0.4-4.6c0-0.2,0-0.2-0.1-0.3l-0.1-0.1c-0.1-0.2-0.4-0.8-1-0.8l-0.3,0
		c-0.6,0-1.1,0.3-1.2,0.8c-0.4,1.4,0,3.4,0.7,6l-0.2,0.4c-0.5,1.2-1.1,2.4-1.6,3.4l-0.1,0.1c-0.5,1.1-1.1,2-1.5,2.8l-0.5,0.2
		c0,0-0.9,0.5-1.1,0.6c-1.7,1-2.8,2.1-2.9,3c-0.1,0.3,0,0.7,0.3,0.9l0.5,0.2c0.2,0.1,0.4,0.2,0.7,0.2c1.2,0,2.6-1.5,4.4-4.7
		c2.1-0.7,4.6-1.3,6.7-1.6c1.6,0.9,3.7,1.6,4.9,1.6c0.2,0,0.4,0,0.6-0.1c0.3-0.1,0.5-0.2,0.6-0.4C25.5,21.7,25.5,21.2,25.5,20.6z
		 M24.8,21.4c-0.1,0.1-0.4,0.1-0.7,0.1c-0.7,0-1.5-0.3-2.7-0.8c0.5,0,0.9-0.1,1.2-0.1c0.7,0,0.9,0,1.6,0.2S24.9,21.3,24.8,21.4z
		 M15.2,13c-0.2-0.7-0.3-1.6-0.3-2.3c0-0.6,0-1.2,0.1-1.3c0.3,0,0.5,0.8,0.5,1.8C15.6,11.9,15.5,12.5,15.2,13z M17.7,20.1
		c-1.8,0.4-3.3,0.8-4.7,1.3c0.3-0.5,0.5-0.9,0.7-1.3c0.7-1.3,1.1-2.3,1.4-3c0.6,1.1,1.4,2.1,2.3,2.8C17.5,19.9,17.6,20,17.7,20.1z
		 M10.4,23.2c-1.3,2.1-2.2,2.9-2.8,3.2c0.2-0.6,1.1-1.7,2.3-2.8C10.1,23.5,10.2,23.4,10.4,23.2z"/>
</g>
</svg>
