<?xml version="1.0" encoding="utf-8"?>
<!-- Generator: Adobe Illustrator 19.2.1, SVG Export Plug-In . SVG Version: 6.00 Build 0)  -->
<svg width="16" height="16" version="1.1" id="Layer_2" xmlns="http://www.w3.org/2000/svg" xmlns:xlink="http://www.w3.org/1999/xlink" x="0px" y="0px"
	 viewBox="0 0 32 32" style="enable-background:new 0 0 32 32;" xml:space="preserve">
<style type="text/css">
	.st0{fill:#FFFFFF;}
	.st1{fill:#0B55A8;}
	.st2{fill:#D24625;}
</style>
<g>
	<path class="st0" d="M20.2,4.7l0-2.9H6c-0.6,0-1,0.5-1,1v26.2c0,0.6,0.5,1,1,1H26c0.6,0,1-0.5,1-1V8.8h-2.8C22,8.8,20.2,7,20.2,4.7
		z"/>
	<path class="st1" d="M20.2,0H5.8C4,0,3.1,1,3.1,2.6v26.6c0,1.8,1,2.8,2.6,2.8h20.5c1.8,0,2.8-1,2.8-2.6V8.8L20.2,0z M27.1,29.1
		c0,0.6-0.5,1-1,1H6c-0.6,0-1-0.5-1-1V2.9c0-0.6,0.5-1,1-1h14.2l0,2.9c0,2.2,1.8,4.1,4.1,4.1h2.8V29.1z"/>
</g>
<g>
	<path class="st2" d="M10.8,26.9V12h4.8c1.8,0,3,0.1,3.6,0.2c0.9,0.2,1.6,0.7,2.2,1.5c0.6,0.8,0.9,1.7,0.9,2.9
		c0,0.9-0.2,1.7-0.5,2.3c-0.3,0.6-0.8,1.1-1.3,1.5s-1,0.6-1.6,0.7c-0.7,0.1-1.8,0.2-3.1,0.2h-2v5.6H10.8z M13.8,14.5v4.2h1.7
		c1.2,0,2-0.1,2.4-0.2c0.4-0.2,0.7-0.4,0.9-0.7c0.2-0.3,0.3-0.7,0.3-1.2c0-0.5-0.2-1-0.5-1.3c-0.3-0.4-0.7-0.6-1.2-0.7
		c-0.4-0.1-1.1-0.1-2.2-0.1H13.8z"/>
</g>
</svg>
