<?xml version="1.0" encoding="utf-8"?>
<!-- Generator: Adobe Illustrator 21.0.2, SVG Export Plug-In . SVG Version: 6.00 Build 0)  -->
<svg width="16" heigh="16" version="1.1" id="Layer_1" xmlns="http://www.w3.org/2000/svg" xmlns:xlink="http://www.w3.org/1999/xlink" x="0px" y="0px"
	 viewBox="0 0 32 32" style="enable-background:new 0 0 32 32;" xml:space="preserve">
<style type="text/css">
	.st0{fill:#0B55A8;}
</style>
<g>
	<g>
		<path class="st0" d="M7.275,30.368c-0.092,0-0.187-0.008-0.286-0.023c-0.982-0.149-1.644-0.96-1.646-2.019
			c0,0-0.009-3.549,0.002-4.981c-0.492,0.012-1.02,0.007-1.56-0.095c-2.141-0.408-3.702-2.259-3.711-4.401
			c-0.017-4.264-0.018-8.452-0.001-12.446c0.011-2.49,1.997-4.47,4.522-4.509L27.2,1.892C30.152,1.893,32.06,3.8,32.06,6.75v11.778
			c-0.001,2.876-1.94,4.808-4.825,4.808c0,0-8.376,0.004-11.518-0.009c-0.091,0.001-0.124-0.001-0.238,0.106
			c-1.506,1.414-6.722,6.264-6.722,6.264C8.552,29.889,8.039,30.368,7.275,30.368z M5.978,21.216c0.24,0,0.695,0.039,1.058,0.394
			c0.426,0.416,0.421,0.976,0.419,1.186c-0.016,1.613-0.012,3.226-0.009,4.839l0.001,0.404l2.067-1.922
			c1.51-1.404,3.021-2.808,4.524-4.22c0.495-0.464,1.037-0.711,1.688-0.676c3.138,0.012,6.276,0.011,9.415,0.01l2.094-0.001
			c1.702,0,2.718-1.011,2.719-2.703V6.751c-0.001-1.774-0.979-2.752-2.755-2.753l-7.697-0.001L4.663,3.999
			C3.26,4.02,2.185,5.08,2.179,6.412C2.162,10.4,2.162,14.581,2.18,18.839c0.005,1.137,0.845,2.122,1.999,2.341
			c0.45,0.086,0.946,0.067,1.47,0.046l0.224-0.008C5.9,21.217,5.936,21.216,5.978,21.216z"/>
	</g>
	<g>
		<g>
			<rect x="7" y="8" class="st0" width="15" height="2"/>
		</g>
		<g>
			<rect x="7" y="12" class="st0" width="19" height="2"/>
		</g>
		<g>
			<rect x="7" y="16" class="st0" width="9" height="2"/>
		</g>
	</g>
</g>
</svg>
