<?xml version="1.0" encoding="utf-8"?>
<!-- Generator: Adobe Illustrator 19.1.0, SVG Export Plug-In . SVG Version: 6.00 Build 0)  -->
<svg width="16" height="16" version="1.1" id="Layer_1" xmlns="http://www.w3.org/2000/svg" xmlns:xlink="http://www.w3.org/1999/xlink" x="0px" y="0px"
	 viewBox="0 0 32 32" style="enable-background:new 0 0 32 32;" xml:space="preserve">
<style type="text/css">
	.st0{fill:#0B55A8;}
	.st1{fill:#FFFFFF;}
</style>
<path class="st0" d="M30,32H2c-1.1,0-2-0.9-2-2V2c0-1.1,0.9-2,2-2h28c1.1,0,2,0.9,2,2v28C32,31.1,31.1,32,30,32z"/>
<g>
	<g>
		<path class="st1" d="M8.7,20.7c-1.5,0-2.7,1.2-2.7,2.7C6,24.8,7.2,26,8.7,26c1.5,0,2.7-1.2,2.7-2.7C11.3,21.9,10.1,20.7,8.7,20.7z
			"/>
		<path class="st1" d="M6,12.8v3.8c2,0,4.8,1,6.6,2.7c1.8,1.8,2.7,4.6,2.7,6.6h3.8C19.2,19,13,12.8,6,12.8z"/>
		<path class="st1" d="M6,6v3.9c9,0,16.2,7.1,16.2,16.1H26C26,15,17,6,6,6z"/>
	</g>
</g>
</svg>
