<?xml version="1.0" encoding="utf-8"?>
<!-- Generator: Adobe Illustrator 20.1.0, SVG Export Plug-In . SVG Version: 6.00 Build 0)  -->
<svg version="1.1" id="Layer_4" xmlns="http://www.w3.org/2000/svg" xmlns:xlink="http://www.w3.org/1999/xlink" x="0px" y="0px"
	 viewBox="0 0 32 32" style="enable-background:new 0 0 32 32;" xml:space="preserve">
<style type="text/css">
	.st0{fill:#0B55A8;}
	.st1{fill:#FFFFFF;}
</style>
<circle class="st0" cx="16" cy="16" r="16"/>
<g>
	<path class="st1" d="M21.211,21.741c0-2.414-1.183-4.666-3.057-6.039c-0.229-0.168-0.465-0.329-0.714-0.469
		c0.112-0.121,0.496-0.63,0.577-0.76c0.49-0.79,0.762-1.719,0.762-2.681c0-0.674-0.138-1.317-0.384-1.903
		c0.34-0.122,0.706-0.193,1.088-0.193c1.775,0,3.214,1.444,3.214,3.219c0,1.063-0.516,2.015-1.311,2.6
		c1.818,0.738,3.099,2.448,3.099,4.655c0,1.018-1.481,1.644-3.302,1.879c0.002-0.011,0.005-0.023,0.007-0.034
		C21.203,21.921,21.211,21.828,21.211,21.741z"/>
	<path class="st1" d="M13.746,8c-2.095,0-3.8,1.701-3.8,3.792c0,1.224,0.594,2.42,1.551,3.124l0.823,0.606l-0.947,0.384
		c-2.308,0.937-3.858,3.282-3.858,5.835c0,1.267,2.737,2.259,6.232,2.259s6.232-0.992,6.232-2.259c0-2.557-1.551-4.903-3.858-5.839
		l-0.947-0.384l0.823-0.605c0.971-0.715,1.551-1.872,1.551-3.096C17.546,9.712,15.841,8,13.746,8z"/>
</g>
</svg>
