<?xml version="1.0" encoding="utf-8"?>
<!-- Generator: Adobe Illustrator 21.0.0, SVG Export Plug-In . SVG Version: 6.00 Build 0)  -->
<svg width="16" height="16" version="1.1" xmlns="http://www.w3.org/2000/svg" xmlns:xlink="http://www.w3.org/1999/xlink" x="0px" y="0px"
	 viewBox="0 0 32 32" style="enable-background:new 0 0 32 32;" xml:space="preserve">
<style type="text/css">
	.st0{display:none;}
	.st1{display:inline;fill:none;}
	.st2{display:inline;}
	.st3{fill:#0B55A8;}
	.st4{fill:#FFFFFF;}
	.st5{display:inline;fill:#FFFFFF;}
</style>
<g id="Layer_3_1_">
</g>
<g id="Layer_2" class="st0">
	<path class="st1" d="M20.336,15.638c-0.191-0.173-0.387-0.33-0.592-0.445c0.116-0.125,0.207-0.268,0.309-0.404
		c-0.11,0.149-0.212,0.304-0.339,0.44C19.931,15.351,20.134,15.494,20.336,15.638z"/>
	<path class="st1" d="M18.483,15.902l-0.947-0.384l0.823-0.605c0.971-0.715,1.551-1.872,1.551-3.096C19.91,9.712,18.205,8,16.11,8
		s-3.8,1.701-3.8,3.792c0,1.224,0.594,2.42,1.551,3.124l0.823,0.606l-0.947,0.384c-2.308,0.937-3.858,3.282-3.858,5.835
		c0,1.267,2.737,2.259,6.232,2.259s6.232-0.992,6.232-2.259C22.342,19.185,20.791,16.838,18.483,15.902z"/>
	<path class="st1" d="M12.354,15.266c-0.195,0.114-0.38,0.267-0.562,0.436c0.229-0.168,0.465-0.329,0.714-0.469
		c-0.112-0.121-0.201-0.261-0.3-0.393c0.084,0.109,0.155,0.227,0.248,0.33C12.421,15.202,12.388,15.235,12.354,15.266z"/>
	<path class="st2" d="M20.239,15.638c-0.202-0.144-0.405-0.287-0.622-0.409c0.127-0.136,0.503-0.637,0.571-0.745
		c0.494-0.787,0.768-1.712,0.768-2.667c0-2.735-2.217-4.959-4.943-4.959c-2.05,0-3.811,1.253-4.559,3.031
		c-0.246,0.586-0.384,1.229-0.384,1.903c0,0.962,0.273,1.891,0.762,2.681c0.081,0.131,0.465,0.639,0.577,0.76
		c-0.25,0.14-0.485,0.301-0.714,0.469c-1.874,1.373-3.057,3.625-3.057,6.039c0,0.087,0.008,0.18,0.02,0.273
		c0.001,0.011,0.005,0.023,0.007,0.034c0.11,0.752,0.661,1.681,2.472,2.351c1.296,0.479,3.027,0.743,4.875,0.743
		c3.554,0,7.13-0.99,7.353-3.186c0.007-0.072,0.021-0.141,0.021-0.215C23.388,19.287,22.165,17.005,20.239,15.638z"/>
</g>
<g id="Layer_4">
	<circle class="st3" cx="16" cy="16" r="16"/>
</g>
<g id="Layer_5">
	<g>
		<path class="st4" d="M8.534,6.364c-1.195,0-2.167,0.97-2.167,2.162c0,0.698,0.339,1.38,0.884,1.782l0.469,0.346l-0.54,0.219
			c-1.316,0.534-2.2,1.872-2.2,3.328c0,0.722,1.561,1.288,3.554,1.288s3.554-0.566,3.554-1.288c0-1.458-0.884-2.796-2.2-3.33
			l-0.54-0.219l0.469-0.345c0.554-0.408,0.884-1.068,0.884-1.765C10.701,7.341,9.729,6.364,8.534,6.364z"/>
	</g>
	<g>
		<path class="st4" d="M23.592,6.364c-1.195,0-2.167,0.97-2.167,2.162c0,0.698,0.339,1.38,0.884,1.782l0.469,0.346l-0.54,0.219
			c-1.316,0.534-2.2,1.872-2.2,3.328c0,0.722,1.561,1.288,3.554,1.288s3.554-0.566,3.554-1.288c0-1.458-0.884-2.796-2.2-3.33
			l-0.54-0.219l0.469-0.345c0.554-0.408,0.884-1.068,0.884-1.765C25.759,7.341,24.787,6.364,23.592,6.364z"/>
	</g>
	<g>
		<path class="st4" d="M15.997,20.175c-1.195,0-2.167,0.97-2.167,2.162c0,0.698,0.339,1.38,0.884,1.782l0.469,0.346l-0.54,0.219
			c-1.316,0.534-2.2,1.872-2.2,3.328c0,0.722,1.561,1.288,3.554,1.288s3.554-0.566,3.554-1.288c0-1.458-0.884-2.796-2.2-3.33
			l-0.54-0.219l0.469-0.345c0.554-0.408,0.884-1.068,0.884-1.765C18.165,21.151,17.192,20.175,15.997,20.175z"/>
	</g>
</g>
<g id="Layer_6" class="st0">
	<path class="st5" d="M12.024,24.023c-0.263,0.437-0.82,0.571-1.244,0.299c-0.001-0.001-0.002-0.001-0.003-0.002
		c-2.173-1.405-3.732-3.628-4.344-6.197c-0.095-0.506,0.226-0.996,0.717-1.094c0.46-0.092,0.913,0.195,1.042,0.66
		c0.503,2.095,1.778,3.906,3.553,5.049C12.166,23.013,12.29,23.588,12.024,24.023z M12.492,8.322c2.191-1.085,4.741-1.085,6.931,0
		c0.452,0.224,0.995,0.027,1.212-0.439c0.217-0.466,0.026-1.026-0.426-1.25c-2.687-1.333-5.816-1.333-8.503,0
		c-0.452,0.224-0.643,0.784-0.426,1.25C11.497,8.349,12.04,8.546,12.492,8.322z M19.915,24.023c0.263,0.437,0.82,0.571,1.244,0.299
		c0.001-0.001,0.002-0.001,0.003-0.002c2.173-1.405,3.732-3.628,4.344-6.197c0.099-0.506-0.218-0.998-0.708-1.1
		c-0.465-0.097-0.923,0.193-1.051,0.664c-0.497,2.101-1.768,3.919-3.544,5.068C19.789,23.026,19.661,23.589,19.915,24.023z"/>
</g>
<g id="Layer_7">
	<g>
		<path class="st4" d="M13.312,9.761c-0.345,0-0.669-0.21-0.799-0.552c-0.167-0.441,0.055-0.935,0.496-1.102
			c1.91-0.724,4.074-0.723,5.978-0.002c0.441,0.167,0.663,0.661,0.496,1.102c-0.166,0.442-0.66,0.663-1.102,0.497
			c-1.516-0.575-3.244-0.575-4.767,0.001C13.515,9.744,13.412,9.761,13.312,9.761z"/>
	</g>
	<g>
		<path class="st4" d="M22.661,17.254c0.192-0.286,0.547-0.439,0.903-0.356c0.459,0.107,0.746,0.566,0.638,1.026
			c-0.463,1.989-1.669,3.786-3.328,4.966c-0.385,0.273-0.918,0.183-1.192-0.202c-0.275-0.384-0.183-0.917,0.201-1.191
			c1.322-0.938,2.284-2.374,2.654-3.959C22.563,17.432,22.605,17.337,22.661,17.254z"/>
	</g>
	<g>
		<path class="st4" d="M9.35,17.254c-0.192-0.286-0.547-0.439-0.903-0.356c-0.459,0.107-0.746,0.566-0.638,1.026
			c0.463,1.989,1.669,3.786,3.328,4.966c0.385,0.273,0.918,0.183,1.192-0.202c0.275-0.384,0.183-0.917-0.201-1.191
			c-1.322-0.938-2.284-2.374-2.654-3.959C9.449,17.432,9.406,17.337,9.35,17.254z"/>
	</g>
</g>
</svg>
