<svg id="Layer_1" data-name="Layer 1" xmlns="http://www.w3.org/2000/svg" viewBox="0 0 32 32" width="16" height="16"><defs><style>.cls-1{fill:#0b55a8;}</style></defs><title>Artboard 1</title><path id="_Compound_Path_" data-name="&lt;Compound Path&gt;" class="cls-1" d="M23.34,5.73a.37.37,0,0,1,0,.16L17.7,16q-3.75,6.75-5.64,10.13l-.87,1.59a.56.56,0,0,1-.5.29,15.63,15.63,0,0,1-2.39-1.25.56.56,0,0,1-.29-.5,6.43,6.43,0,0,1,.79-1.55,18.75,18.75,0,0,1-4.71-3.09A21.42,21.42,0,0,1,.36,17.23a2.31,2.31,0,0,1,0-2.47A20.91,20.91,0,0,1,7.14,8.14,16.9,16.9,0,0,1,16,5.71a17.55,17.55,0,0,1,3.21.3l1-1.73a.56.56,0,0,1,.5-.29,1,1,0,0,1,.32.11c.15.07.34.16.55.28l.59.33c.18.11.36.22.56.33l.35.21A.54.54,0,0,1,23.34,5.73ZM9.91,22.7l1.39-2.53A8,8,0,0,1,9.09,9.7,17.51,17.51,0,0,0,2.29,16,17.61,17.61,0,0,0,9.91,22.7ZM16.61,9.75a.83.83,0,0,0,.25-.61.81.81,0,0,0-.25-.6A.79.79,0,0,0,16,8.29a5.46,5.46,0,0,0-5.43,5.42.85.85,0,0,0,.25.61.87.87,0,0,0,1.22,0,.86.86,0,0,0,.25-.61A3.71,3.71,0,0,1,16,10,.81.81,0,0,0,16.61,9.75ZM32,16a2.39,2.39,0,0,1-.36,1.23,20.63,20.63,0,0,1-1.95,2.59,19.37,19.37,0,0,1-6.2,4.76A17,17,0,0,1,16,26.29l1.32-2.36a14.85,14.85,0,0,0,7-2.44A18.47,18.47,0,0,0,29.71,16a18.22,18.22,0,0,0-5-5.25l1.13-2a21.09,21.09,0,0,1,3.26,2.73,18.29,18.29,0,0,1,2.58,3.28A2.4,2.4,0,0,1,32,16Zm-8-2.29a8,8,0,0,1-5.14,7.46l5-9A8.61,8.61,0,0,1,24,13.71Z"/></svg>