<?xml version="1.0" encoding="utf-8"?>
<!-- Generator: Adobe Illustrator 19.1.0, SVG Export Plug-In . SVG Version: 6.00 Build 0)  -->
<svg width="16" height="16" version="1.1" id="Layer_1" xmlns="http://www.w3.org/2000/svg" xmlns:xlink="http://www.w3.org/1999/xlink" x="0px" y="0px"
	 viewBox="0 0 32 32" style="enable-background:new 0 0 32 32;" xml:space="preserve">
<style type="text/css">
	.st0{fill:#0B55A8;}
</style>
<path class="st0" d="M20.7,0H6.4C4.5,0,3.6,1,3.6,2.6v26.6c0,1.8,1,2.8,2.6,2.8h20.5c1.8,0,2.8-1,2.8-2.6V8.8L20.7,0z M27.6,29.1
	c0,0.6-0.5,1-1,1H6.5c-0.6,0-1-0.5-1-1V2.9c0-0.6,0.5-1,1-1h14.2l0,2.9c0,2.2,1.8,4.1,4.1,4.1h2.8V29.1z"/>
<g>
	<path class="st0" d="M15.1,24.5V12.7h-4.2v-2.4h11.3v2.4H18v11.8H15.1z"/>
</g>
</svg>
