<?xml version="1.0" encoding="utf-8"?>
<!-- Generator: Adobe Illustrator 19.2.1, SVG Export Plug-In . SVG Version: 6.00 Build 0)  -->
<svg width="16" height="16" version="1.1" id="Layer_1" xmlns="http://www.w3.org/2000/svg" xmlns:xlink="http://www.w3.org/1999/xlink" x="0px" y="0px"
	 viewBox="0 0 32 32" style="enable-background:new 0 0 32 32;" xml:space="preserve">
<style type="text/css">
	.st0{fill:#FFFFFF;}
	.st1{fill:#0B55A8;}
</style>
<g>
	<path class="st0" d="M20.737,4.817L20.731,1.94H6.521c-0.574,0-1.043,0.47-1.043,1.043v26.203c0,0.574,0.47,1.044,1.043,1.044
		h20.058c0.574,0,1.044-0.47,1.044-1.044V8.896h-2.828C22.554,8.896,20.737,7.058,20.737,4.817z"/>
	<path class="st1" d="M20.738,0.085H6.395c-1.831,0-2.773,0.966-2.773,2.58v26.647c0,1.831,0.966,2.773,2.58,2.773h20.502
		c1.831,0,2.773-0.966,2.773-2.58V8.896L20.738,0.085z M27.623,29.186c0,0.574-0.47,1.044-1.044,1.044H6.521
		c-0.574,0-1.043-0.47-1.043-1.044V2.983c0-0.574,0.47-1.043,1.043-1.043h14.21l0.005,2.877c0,2.241,1.817,4.079,4.058,4.079h2.828
		V29.186z"/>
</g>
</svg>
