<?xml version="1.0" encoding="utf-8"?>
<!-- Generator: Adobe Illustrator 20.1.0, SVG Export Plug-In . SVG Version: 6.00 Build 0)  -->
<svg width="16" height="16" version="1.1" id="Layer_1" xmlns="http://www.w3.org/2000/svg" xmlns:xlink="http://www.w3.org/1999/xlink" x="0px" y="0px"
	 viewBox="0 0 32 32" style="enable-background:new 0 0 32 32;" xml:space="preserve">
<style type="text/css">
	.st0{display:none;}
	.st1{fill:#832884;}
	.st2{fill:#FFFFFF;}
	.st3{fill:none;stroke:#FFFFFF;stroke-width:0.258;stroke-miterlimit:10;}
</style>
<g id="Layer_3">
</g>
<g id="Layer_4" class="st0">
</g>
<g id="Layer_5">
</g>
<g id="Layer_6">
</g>
<g id="Layer_2">
</g>
<g id="Layer_7">
</g>
<g>
	<g id="Layer_1_1_">
		<circle class="st1" cx="16" cy="16" r="16"/>
		<g>
			<g id="Login_4_">
				<g>
					<path class="st2" d="M19.65,16.8c0.1-0.1,0.2-0.25,0.2-0.4s-0.05-0.3-0.2-0.4L16,12.45L12.35,16c-0.25,0.25-0.25,0.6,0,0.85
						s0.6,0.25,0.85,0l2.15-2.15v11.55c0,0.35,0.25,0.6,0.6,0.6s0.6-0.25,0.6-0.6V14.6l2.2,2.2C19.05,17.05,19.4,17.05,19.65,16.8z
						 M7.6,20.8H13v-1.2H8.35c-0.4,0-0.75-0.3-0.75-0.75v-9.3c0-0.4,0.3-0.75,0.75-0.75H23.7c0.4,0,0.75,0.3,0.75,0.75v9.3
						c0,0.4-0.3,0.75-0.75,0.75H19v1.2h5.4c0.65,0,1.2-0.55,1.2-1.2V8.8c0-0.65-0.55-1.2-1.2-1.2H7.6c-0.65,0-1.2,0.55-1.2,1.2v10.8
						C6.4,20.25,6.95,20.8,7.6,20.8z"/>
				</g>
				<g>
					<path class="st3" d="M19.65,16.8c0.1-0.1,0.2-0.25,0.2-0.4s-0.05-0.3-0.2-0.4L16,12.45L12.35,16c-0.25,0.25-0.25,0.6,0,0.85
						s0.6,0.25,0.85,0l2.15-2.15v11.55c0,0.35,0.25,0.6,0.6,0.6s0.6-0.25,0.6-0.6V14.6l2.2,2.2C19.05,17.05,19.4,17.05,19.65,16.8z
						 M7.6,20.8H13v-1.2H8.35c-0.4,0-0.75-0.3-0.75-0.75v-9.3c0-0.4,0.3-0.75,0.75-0.75H23.7c0.4,0,0.75,0.3,0.75,0.75v9.3
						c0,0.4-0.3,0.75-0.75,0.75H19v1.2h5.4c0.65,0,1.2-0.55,1.2-1.2V8.8c0-0.65-0.55-1.2-1.2-1.2H7.6c-0.65,0-1.2,0.55-1.2,1.2v10.8
						C6.4,20.25,6.95,20.8,7.6,20.8z"/>
				</g>
			</g>
		</g>
	</g>
	<g id="Layer_8">
	</g>
</g>
</svg>
