<?xml version="1.0" encoding="utf-8"?>
<!-- Generator: Adobe Illustrator 21.0.2, SVG Export Plug-In . SVG Version: 6.00 Build 0)  -->
<svg width="16" heigh="16" version="1.1" id="Layer_2" xmlns="http://www.w3.org/2000/svg" xmlns:xlink="http://www.w3.org/1999/xlink" x="0px" y="0px"
	 viewBox="0 0 32 32" style="enable-background:new 0 0 32 32;" xml:space="preserve">
<style type="text/css">
	.st0{fill:#0B55A8;}
</style>
<g>
	<g>
		<path class="st0" d="M27.244,16.001L10.78,25.638V6.364L27.244,16.001z"/>
	</g>
	<g>
		<path class="st0" d="M16,32C9.354,32,3.249,27.722,0.967,21.481c-2.31-6.318-0.301-13.578,4.887-17.843
			c5.16-4.243,12.638-4.805,18.367-1.36c5.739,3.451,8.789,10.305,7.466,16.878C30.203,26.528,23.521,32,16,32z M16,3.492
			c-5.208,0-9.992,3.363-11.766,8.259c-1.78,4.913-0.225,10.546,3.789,13.878c4.021,3.337,9.868,3.803,14.361,1.127
			c4.51-2.687,6.912-8.053,5.884-13.206C27.117,7.778,21.882,3.492,16,3.492z"/>
	</g>
</g>
</svg>
