<?xml version="1.0" encoding="utf-8"?>
<!-- Generator: Adobe Illustrator 24.0.1, SVG Export Plug-In . SVG Version: 6.00 Build 0)  -->
<svg version="1.1" id="Layer_1" xmlns="http://www.w3.org/2000/svg" xmlns:xlink="http://www.w3.org/1999/xlink" x="0px" y="0px"
	 viewBox="0 0 32 32" style="enable-background:new 0 0 32 32;" xml:space="preserve">
<style type="text/css">
	.st0{fill:#F0F0F1;}
	.st1{fill:#676463;}
</style>
<g>
	<path class="st0" d="M28.8,32H3.2C1.433,32,0,30.567,0,28.8V3.2C0,1.433,1.433,0,3.2,0h25.6C30.567,0,32,1.433,32,3.2v25.6
		C32,30.567,30.567,32,28.8,32z"/>
	<path id="XMLID_1_" class="st1" d="M25.606,15.998c0,0.242-0.07,0.492-0.214,0.739c-1.001,1.644-2.345,2.962-4.035,3.948
		c-1.69,0.988-3.471,1.486-5.351,1.486s-3.662-0.502-5.351-1.494c-1.69-0.993-3.036-2.308-4.035-3.94
		c-0.144-0.247-0.214-0.497-0.214-0.739c0-0.24,0.07-0.49,0.214-0.739c1-1.633,2.345-2.947,4.035-3.939
		c1.69-0.994,3.47-1.492,5.351-1.492c1.88,0,3.661,0.499,5.351,1.492c1.69,0.992,3.035,2.307,4.035,3.939
		C25.536,15.508,25.606,15.758,25.606,15.998z M24.234,15.998c-1.085-1.685-2.447-2.947-4.08-3.779
		c0.433,0.74,0.653,1.542,0.653,2.406c0,1.325-0.471,2.453-1.411,3.39c-0.938,0.94-2.068,1.41-3.389,1.41s-2.452-0.47-3.389-1.41
		c-0.94-0.938-1.41-2.065-1.41-3.39c0-0.863,0.218-1.665,0.652-2.406c-1.633,0.832-2.995,2.094-4.079,3.779
		c0.947,1.465,2.138,2.633,3.572,3.497c1.433,0.866,2.983,1.303,4.655,1.303c1.673,0,3.222-0.436,4.655-1.303
		C22.095,18.63,23.286,17.463,24.234,15.998z M16.37,12.248c0.1-0.103,0.15-0.22,0.15-0.365c0-0.142-0.05-0.261-0.15-0.361
		c-0.099-0.105-0.22-0.15-0.364-0.15c-0.893,0-1.659,0.319-2.299,0.958c-0.64,0.64-0.959,1.408-0.959,2.294
		c0,0.145,0.05,0.265,0.15,0.369c0.101,0.095,0.223,0.151,0.365,0.151c0.141,0,0.263-0.056,0.365-0.151
		c0.098-0.104,0.15-0.224,0.15-0.369c0-0.612,0.215-1.137,0.652-1.574c0.436-0.437,0.961-0.654,1.575-0.654
		C16.15,12.397,16.271,12.35,16.37,12.248z"/>
</g>
</svg>
