<?xml version="1.0" encoding="utf-8"?>
<!-- Generator: Adobe Illustrator 20.1.0, SVG Export Plug-In . SVG Version: 6.00 Build 0)  -->
<svg width="16" height="16" version="1.1" id="Layer_4" xmlns="http://www.w3.org/2000/svg" xmlns:xlink="http://www.w3.org/1999/xlink" x="0px" y="0px"
	 viewBox="0 0 32 32" style="enable-background:new 0 0 32 32;" xml:space="preserve">
<style type="text/css">
	.st0{fill:#0B55A8;}
</style>
<path id="XMLID_1908_" class="st0" d="M32,15.998c0,0.404-0.117,0.82-0.356,1.232c-1.668,2.74-3.909,4.936-6.725,6.58
	c-2.817,1.646-5.786,2.477-8.919,2.477c-3.134,0-6.103-0.837-8.918-2.49c-2.817-1.655-5.06-3.847-6.726-6.567
	C0.116,16.818,0,16.402,0,15.998c0-0.4,0.116-0.816,0.356-1.232c1.666-2.722,3.908-4.912,6.726-6.566
	C9.898,6.543,12.866,5.713,16,5.713c3.133,0,6.102,0.831,8.919,2.486c2.816,1.654,5.058,3.845,6.725,6.566
	C31.883,15.181,32,15.597,32,15.998z M29.713,15.998c-1.809-2.809-4.078-4.912-6.8-6.299c0.722,1.234,1.088,2.57,1.088,4.01
	c0,2.209-0.785,4.088-2.352,5.65c-1.564,1.566-3.447,2.35-5.649,2.35s-4.086-0.783-5.649-2.35c-1.566-1.563-2.35-3.441-2.35-5.65
	c0-1.439,0.364-2.775,1.086-4.01c-2.722,1.387-4.991,3.49-6.799,6.299c1.578,2.441,3.564,4.388,5.953,5.829
	c2.389,1.443,4.972,2.171,7.759,2.171c2.788,0,5.37-0.727,7.758-2.171C26.148,20.385,28.133,18.439,29.713,15.998z M16.607,9.748
	c0.166-0.172,0.25-0.366,0.25-0.609c0-0.236-0.084-0.435-0.25-0.601C16.442,8.363,16.24,8.288,16,8.288
	c-1.489,0-2.765,0.532-3.831,1.597c-1.067,1.066-1.599,2.346-1.599,3.824c0,0.242,0.083,0.441,0.25,0.615
	c0.169,0.158,0.372,0.251,0.608,0.251c0.235,0,0.438-0.093,0.609-0.251c0.164-0.174,0.25-0.373,0.25-0.615
	c0-1.02,0.359-1.895,1.087-2.623c0.727-0.728,1.602-1.09,2.625-1.09C16.24,9.996,16.442,9.917,16.607,9.748z"/>
</svg>
