<?xml version="1.0" encoding="utf-8"?>
<!-- Generator: Adobe Illustrator 19.2.1, SVG Export Plug-In . SVG Version: 6.00 Build 0)  -->
<svg width="16" height="16" version="1.1" id="Layer_2" xmlns="http://www.w3.org/2000/svg" xmlns:xlink="http://www.w3.org/1999/xlink" x="0px" y="0px"
	 viewBox="0 0 32 32" style="enable-background:new 0 0 32 32;" xml:space="preserve">
<style type="text/css">
	.st0{fill:#FFFFFF;}
	.st1{fill:#0B55A8;}
</style>
<polygon class="st0" points="4,0.9 4,31.2 28.2,31.2 28.2,8.7 20.5,0.9 "/>
<path class="st1" d="M20.2,0H5.8v0l0,0C4,0,3.1,1,3.1,2.6v26.6C3.1,31.1,4,32,5.6,32h20.5c1.8,0,2.8-1,2.8-2.6V8.8L20.2,0z
	 M27.1,29.1c0,0.6-0.5,1-1.1,1H5.9c-0.6,0-1-0.5-1-1V2.9c0-0.6,0.4-1,1-1h14.2l0,2.9c0,2.2,1.8,4.1,4.1,4.1h2.9V29.1z"/>
<g>
	<g>
		<rect x="12.5" y="5.9" class="st1" width="3.2" height="2.7"/>
		<rect x="15.8" y="8.6" class="st1" width="3.2" height="2.7"/>
		<rect x="12.5" y="11.3" class="st1" width="3.2" height="2.7"/>
		<rect x="15.8" y="13.9" class="st1" width="3.2" height="2.7"/>
		<rect x="12.5" y="16.6" class="st1" width="3.2" height="2.7"/>
		<rect x="15.8" y="19.3" class="st1" width="3.2" height="2.7"/>
		<rect x="12.5" y="21.9" class="st1" width="3.2" height="2.7"/>
		<rect x="15.8" y="24.6" class="st1" width="3.2" height="2.7"/>
	</g>
</g>
</svg>
